<?xml version="1.0" encoding="utf-8"?>
<!-- Generator: Adobe Illustrator 24.0.2, SVG Export Plug-In . SVG Version: 6.00 Build 0)  -->
<svg version="1.1" id="Layer_1" xmlns="http://www.w3.org/2000/svg" xmlns:xlink="http://www.w3.org/1999/xlink" x="0px" y="0px"
	 viewBox="0 0 202.1 248.5" style="enable-background:new 0 0 202.1 248.5;" xml:space="preserve">
<style type="text/css">
	.st0{fill:#542D2A;}
	.st1{fill:#FFBB88;}
	.st2{fill:#FF9769;}
	.st3{fill:#663E39;}
	.st4{fill:#563C38;}
	.st5{fill:#D82525;}
	.st6{fill:#F74743;}
	.st7{fill:#FF5252;}
	.st8{fill:#E83434;}
	.st9{fill:#3F322D;}
	.st10{fill:#FFFEEE;}
	.st11{fill:#FFE9CF;}
	.st12{fill:#F2D5B1;}
	.st13{fill:#332723;}
	.st14{fill:#F45540;}
	.st15{fill:#F7E7D0;}
	.st16{opacity:0.5;fill:#E05555;}
</style>
<g>
	<g>
		<path class="st0" d="M188.4,70H13.3C16.1,95.8-1.5,200.6,1.8,214.8c7.6,32.9,190.3,33.9,198.1,0C203.2,200.6,185.6,95.8,188.4,70z
			"/>
		<path class="st1" d="M158.9,185.7c24.5-1.5,44.2-34.7,31.9-50.9C168.5,105.1,129.7,187.4,158.9,185.7z"/>
		<path class="st2" d="M167.6,175.6c16.2-2.6,27-26.1,17.8-36C168.6,121.4,148.3,178.7,167.6,175.6z"/>
		<path class="st1" d="M44.9,190.4c-24.3-2-42.7-34-29.4-47.7C38.1,119.4,72.4,192.7,44.9,190.4z"/>
		<path class="st2" d="M41.4,184c-18.2-1.5-32-25.3-22-35.6C36.3,131,62,185.7,41.4,184z"/>
		<path class="st3" d="M189.4,37.1c-18-41.4-65-37.1-92.7-30.3C74-0.9,38.8-4.6,17.7,35.5c-34.2,64.9,18.6,168.4,56.2,192.4
			l60.5-2.7C164.4,202.2,218.8,104.5,189.4,37.1z"/>
		<path class="st0" d="M190.3,39.4c-7,23.8-45.5,41.9-92,41.9c-39.3,0-72.9-13-86.6-31.4C-9,114.7,39,205.6,73.9,227.9l60.5-2.7
			C164.1,202.5,217.6,106.7,190.3,39.4z"/>
		<path class="st1" d="M172.9,153.7c0-75.1-17.8-99.9-67-99.9c-49.1,0-67,20-67,99.9c0,56.9,45.9,94.2,67.9,94.2
			C127.9,246.2,172.9,206.6,172.9,153.7z"/>
		<path class="st2" d="M115.7,171.8c-7.8-13.2-9.1-28.4-8.2-37.5c0,0-2.6,11.7,1.2,26.4c1.2,4.4,6.7,12.4,5.5,13.8
			c-1.6,2-4.4,3.6-7.7,3.6c-5.3,0-9.3-3.9-8.9-6.9c-2.1,3.4,1.6,9.2,8.6,9.2C113.5,180.6,118.2,175.9,115.7,171.8z"/>
		<path class="st2" d="M164,165.9c0.4-3.6-3.6-7.1-9.9-7.8c-7.9-0.8-15.8,3.1-15.5,8.6c0.3,5.1,7.7,8,14.9,6.9
			C159.4,172.7,163.7,169.4,164,165.9z"/>
		<path class="st2" d="M45.9,163.5c0.4-3.6,4.7-6.3,10.6-5.7c7.5,0.7,14,6.1,12.7,11.4c-1.2,5-8.6,6.4-15.1,3.9
			C48.8,171,45.5,167,45.9,163.5z"/>
		<path class="st2" d="M111.5,230.5c0-0.5-2.7-0.9-5.9-0.9c-3.3,0-5.9,0.4-5.9,0.9c0,0.5,2.7,0.9,5.9,0.9
			C108.8,231.5,111.5,231,111.5,230.5z"/>
		<path class="st4" d="M141,210.2c0-0.6-0.5-1-1.2-1c-0.6,0-1.2,0.5-1.2,1c0,0.6,0.5,1,1.2,1C140.4,211.2,141,210.7,141,210.2z"/>
	</g>
	<g>
		<path class="st5" d="M71.8,194.5c0.9,5.7,17,25.1,22.4,28.1c4.7,2.7,16.9,3.7,23.8,0.4c7.2-3.5,20.3-27.6,18.7-28.5
			c-2.3-1.3-3,0.1-5.5-0.3c-5.9-1.1-11.4-3.8-16.4-3.4c-2.9,0.3-5.7,2.1-8.5,2c-2.1,0-8.2-2.1-10.7-2c-5.4,0.1-10.6,3.9-16.1,3.9
			C75.2,194.7,71.8,192.6,71.8,194.5z"/>
		<path class="st6" d="M71.8,193.5c0.9,5.7,17,24.8,22.4,27.8c4.7,2.6,16.9,3.7,23.8,0.4c7.2-3.4,20.3-27.3,18.7-28.2
			c-2.3-1.3-3,0.1-5.5-0.3c-5.9-1.1-11.4-3.8-16.4-3.3c-2.9,0.3-5.7,2-8.5,2c-2.1,0-8.2-2-10.7-2c-5.4,0.1-10.6,3.9-16.1,3.9
			C75.2,193.7,71.8,191.7,71.8,193.5z"/>
		<path class="st7" d="M111.7,220.3c-5.5,1.3-14.4-2-15.4-4.5c-0.8-1.9,5.6-0.6,12.5-0.9c6.5-0.3,10.4-3.6,13.5-3.3
			C123.9,211.8,120.1,218.4,111.7,220.3z"/>
		<path class="st8" d="M136.6,193.5c-2.3-1.3-3,0.1-5.5-0.3c-0.2,0-0.4-0.1-0.6-0.1c-0.2,2.2-10.2,3.3-16.1,2.8
			c-4.4-0.4-6.5-2.6-6.2-4.3c-0.7,0.1-1.3,0.2-2,0.2c-0.4,0-0.9-0.1-1.5-0.2c-0.5,1.7-2.9,4-8.8,4.3c-4.6,0.2-12.2-1.4-14.6-2.4
			c-0.6,0.1-1.2,0.1-1.8,0.1c-4.3,0-7.6-2.1-7.7-0.2c0.3,1.9,2.2,5.2,4.9,8.9c7.2-2.5,16.7-2.1,26.7-2.3c8.3-0.1,18.2,3.5,24.6,4.5
			c1.7-1.5,3.9-1.7,3.3,0.9C134,200.6,137.3,193.8,136.6,193.5z"/>
		<path class="st5" d="M76.9,194.2c-2-0.5-2.8,1.8-1.7,3.4c4.1,6.2,13.8,17,32.1,16.8c13.4-0.2,23.5-12.2,27.1-17.7
			c0.6-0.9,0.6-2.9-0.8-2.5c-9.4,2.8-18.6,4-27.8,3.9C96.3,198,86.8,196.5,76.9,194.2z"/>
		<path class="st8" d="M118.6,219.1c-6.4,4.3-16.9,4.4-25.1-0.2c-4.8-2.7-18.3-18.1-21.7-25.1c1.5,6.1,17,24.5,22.3,27.5
			c4.7,2.6,16.9,3.7,23.8,0.4c7-3.4,19.8-26.6,18.7-28.2C134.5,199.2,125.2,214.8,118.6,219.1z"/>
		<path class="st9" d="M77.5,194.7c-0.7-0.2-1.5,0.1-2,0.8c-0.4,0.6-0.4,1.5,0,2.1c4,5.8,14.2,16,32.2,15.8
			c13.2-0.2,22.8-11.9,26.4-16.9c0.2-0.3,0.2-0.8,0-1.1c-0.2-0.3-0.7-0.5-1.1-0.4c-9.4,2.7-18.9,4.3-28,4.1
			C95.9,198.7,87.1,196.8,77.5,194.7z"/>
		<path class="st10" d="M80.6,196.3c1.7-0.8,13.4,3.6,24.5,3.4c12.5-0.2,22.2-3.3,22.7-2.7c0.6,0.6-1,7.3-5,10.1
			c-4,2.8-10.1,5.7-17.5,5.4c-5.9-0.2-17.7-2.9-22.5-7.9C78.1,199.6,80.1,196.6,80.6,196.3z"/>
		<path class="st11" d="M82.4,203.4c0.1-0.6,0.7-1.4,4.6-0.1c2.3,0.7,6.8,0.9,6.8,0.9s-3-0.7-4.5-0.9c-1.5-0.2-8.2-1.4-7.9-3.1
			C81.3,200.2,79.9,201.7,82.4,203.4z"/>
		<path class="st11" d="M112.8,205c2.8,0.4,9.2-1.3,10.4-1c0.6,0.2,1.1,1,0.3,1.8c0,0,4.5-2.6,3-6.1c0.8,2.9-6.1,4.4-8.1,4.5
			C115.2,204.4,111.6,204.9,112.8,205z"/>
		<path class="st12" d="M122.9,206.1c-4,2.8-10.1,5.9-17.5,5.6c-5.9-0.2-17.7-3.1-22.5-8.1c-2.1-2.2-2.9-4.1-3.1-5.5
			c-0.1,1.4,0.4,3.6,3.1,6.4c4.8,5,16.6,7.9,22.5,8.1c7.4,0.3,13.5-2.8,17.5-5.6c3.8-2.7,5.4-9,5.1-10
			C127.7,199.2,126.1,203.9,122.9,206.1z"/>
		<path class="st12" d="M81.9,199.9c1.6-0.8,12.9,1.9,23.3,1.6c11.8-0.3,20.7-2,21.3-1.4c0.2,0.2,0.1,1.6-0.4,3.3
			c1.6-2.9,2.2-6,1.8-6.4c-0.6-0.6-10.2,2.6-22.7,2.7c-11.1,0.1-22.9-4.2-24.5-3.4c-0.5,0.2-2,2.5,0.5,6.2
			C81,201,81.7,200.1,81.9,199.9z"/>
		<path class="st9" d="M85,202.6c1.4-0.3-2-0.2-4.2-2c-1.4-1.2-1.1-3.1-0.8-4.6c0,0-3.3,1.7-1.6,4.3c1.7,2.6,4.2,4.5,4.2,4.5
			s-0.4-1.6,0-2.2C82.9,202.2,83.8,202.3,85,202.6z"/>
		<path class="st9" d="M122.1,207.7c1.5-1.1,4.1-4.7,1.9-4.3c-2.6,0.4-3.5,0.8-4.3,0.6c-0.6-0.1,5.9-0.2,8.1-4.8
			c0,0,0.7,1.1-0.1,3.2C127,204.6,122.2,207.7,122.1,207.7C122.2,207.7,120.6,208.9,122.1,207.7z"/>
		<path class="st11" d="M97.7,204.8c-1.6,0,3.7,0.8,5,0.4C102.6,205.2,99.4,204.8,97.7,204.8z"/>
		<path class="st12" d="M93.1,209.7c0.4-0.4,0.5-0.9,0.6-2.1c0,0,0.1,2,0.9,2.7L93.1,209.7z"/>
		<path class="st12" d="M118.9,208.9c-0.3-0.2-0.5-0.6-0.6-1.5c0,0-0.1,1.5-0.7,2.1L118.9,208.9z"/>
		<path class="st12" d="M106.2,201c-0.4,0.7-0.7,1.5-0.6,3c0,0-0.2-2.4-1.2-2.8L106.2,201z"/>
		<path class="st5" d="M109.9,213.7l-3.1,0.1c1.2,0.3,1.9,1.8,2,2.8C108.8,216.6,108.5,214.2,109.9,213.7z"/>
		<path class="st5" d="M104.9,198.7l3.1,0c-1.2-0.4-1.9-1.9-1.9-2.9C106.1,195.8,106.3,198.3,104.9,198.7z"/>
		<path class="st8" d="M102.5,222.9l3.1,0.2c-1.1-0.4-1.8-2-1.7-3C103.9,220.1,103.9,222.6,102.5,222.9z"/>
		<path class="st8" d="M111,222.4l2.4-0.5c-0.9-0.2-1.7-1.6-1.9-2.6C111.6,219.3,112,221.8,111,222.4z"/>
		<path class="st7" d="M96,214.8c-0.9,0.3-2.8,0.2-2.8-0.8C93.2,212.9,97.9,214.1,96,214.8z"/>
		<path class="st7" d="M115.7,193.8c-1.2,0.6-5.8-0.6-6.3-1.7c-0.2-0.5,1.4-0.8,2.4-1.3c3.9-1.9,10.9-0.1,10.4,0.9
			C121.8,192.6,118.6,192.3,115.7,193.8z"/>
		<path class="st7" d="M124.4,192.4c-1,0.2-2.1-0.3-1.6-0.8C123.3,191.2,125.9,192.1,124.4,192.4z"/>
		<path class="st7" d="M103,191.8c0.5,0.2-1.8,2-3.3,2.1c-1.5,0.1-10.5-1.6-8.7-2.7C92.8,190.1,96.4,189.3,103,191.8z"/>
		<path class="st7" d="M90.1,191.8c-0.6,1.2-3,1.1-2.6,0.5C87.9,191.8,90.7,190.8,90.1,191.8z"/>
		<path class="st5" d="M110.6,198.5c-0.4-0.4-1.1-1.4-1.1-2.1c0,0,0.5,1.7,3.5,1.7L110.6,198.5z"/>
		<path class="st13" d="M128.9,197.1c0,0.7-0.2,3.9-2.4,5c0,0,1.1,0.1,1.1,1.2c0,0,5.1-5.1,5.1-6.6
			C132.8,195.2,128.9,197.1,128.9,197.1z"/>
		<path class="st13" d="M81.5,202.3c-2-1.7-2.7-2.7-2.2-6.1c0,0-2.9-1.6-3.2-0.2C75.9,197.4,77.2,200,81.5,202.3z"/>
	</g>
	<path class="st3" d="M83.3,98.8c-8-0.4-17,0.6-27.5,9c-7.2,5.8-12.1,18.2-12.1,18.2c14.2-22,27-22.3,38.6-20.3
		C93.1,107.5,93.4,99.3,83.3,98.8z"/>
	<g>
		<path class="st4" d="M54.4,136.4c-0.3,1.8-1,6.8-3.3,8.2l7.5-0.7C58.7,138.1,54.7,134.6,54.4,136.4z"/>
		<g>
			<path class="st4" d="M58.6,140c-1.5-0.4-3.7-2.1-3.8-2.7c-0.1-0.6,4.9-5,4.9-5L58.6,140z"/>
			<path class="st14" d="M86,142.9c1.6-0.3,4.1-1.8,4.2-2.4c0.1-0.5-3.8-5.4-3.8-5.4L86,142.9z"/>
			<path class="st4" d="M87.4,140.4c0.3-8.9-6.6-16.9-14.6-17.2c-8.1-0.3-14.9,6.7-15.2,15.6c-0.3,8.9,5.8,13.2,13.9,13.5
				C79.4,152.6,87,149.3,87.4,140.4z"/>
			<path class="st10" d="M85.6,138.1c0.3-7.7-5.5-13.8-13-13.6c-7.5,0.2-13.8,6.5-14.1,14.1c-0.3,7.7,5.6,12.4,13.1,12.3
				C79,150.8,85.3,145.8,85.6,138.1z"/>
			<path class="st15" d="M72.4,149.1c-7.5,0.2-13.4-5-13.1-12.6c0-1.2,0.3-2.4,0.6-3.6c-0.8,1.8-1.3,3.7-1.4,5.7
				c-0.3,7.7,5.6,12.8,13.1,12.6c6.4-0.1,11.8-4,13.5-9.9C82.8,146,77.9,149,72.4,149.1z"/>
			<path class="st9" d="M79,139.6c0.1-3.8-3-7-6.9-7.1c-4-0.1-7.3,2.8-7.4,6.6c-0.1,3.8,3,7,6.9,7.1C75.5,146.3,78.9,143.4,79,139.6
				z"/>
			<path class="st16" d="M90.2,140.4c-3.2-7.9-8.2-15.6-16.5-15.9c-7.4-0.3-17.1,5.5-18.6,12.7C62.8,129.5,80.1,129.9,90.2,140.4z"
				/>
			<path class="st2" d="M55.6,135.7c1.7-5.8,20.1-14.4,33.9,3.1c0,0-4.7-17.9-18.5-18.5C55,119.8,55.6,135.7,55.6,135.7z"/>
			<path class="st10" d="M80.2,140.3c0.1-1.4-0.9-2.5-2.1-2.6c-1.2,0-2.2,1-2.3,2.4c-0.1,1.4,0.9,2.5,2.1,2.6
				C79.1,142.8,80.1,141.7,80.2,140.3z"/>
			<path class="st10" d="M76.2,135.6c-0.3-0.8-0.9-1.2-1.4-1.1c-0.5,0.2-0.6,0.9-0.3,1.6c0.3,0.8,0.9,1.2,1.4,1.1
				C76.3,137.1,76.5,136.4,76.2,135.6z"/>
		</g>
		<path class="st4" d="M90.5,141c-2,0.1-7.2-11.3-18.1-11.8c-11-0.5-16.2,6.7-17.4,8.6c0,0-1.5-1.4,0.4-4.1c2-2.7,9.7-9,17.7-7
			c9.6,2.4,16.2,13.4,20.1,13L90.5,141z"/>
		<path class="st1" d="M58.3,145.8c0,0,2.3,8.5,13.7,8.2c8.8-0.2,14.2-6.6,15.5-11.2c0,0-8.4,5.5-17.5,4.8
			C60.9,147,58.3,145.8,58.3,145.8z"/>
		<path class="st4" d="M91.6,140.5c-5.7,2.3-9.9,11-23.3,9.2c-13.5-1.8-10.4-4.6-21-3.3c0,0,6.4-3.9,11-2.7
			c4.6,1.3,11.8,4.4,18.6,2.8C82.3,145.2,87.5,140.5,91.6,140.5z"/>
		<path class="st4" d="M48,132.1c0,0,4.9,3.1,8.2,2.3l-1.2,1.4C55,135.8,50.4,135.8,48,132.1z"/>
		<path class="st4" d="M47,137.3c0,0,5.7,1.1,8.4-1l-0.5,1.7C54.9,138.1,50.6,139.8,47,137.3z"/>
		<path class="st4" d="M50.5,129.1c0,0,3.9,4.3,7.3,4.3l-1.5,1.1C56.3,134.5,51.9,133.3,50.5,129.1z"/>
		<path class="st4" d="M52.8,127.1c0,0,3.6,4.6,7,4.8l-1.6,0.9C58.2,132.9,53.9,131.3,52.8,127.1z"/>
		<path class="st4" d="M56.1,125c0,0,3.2,4.8,6.5,5.4l-1.6,0.8C61,131.2,56.8,129.4,56.1,125z"/>
		<path class="st4" d="M59.9,123.1c0,0,1.2,4.6,3.9,5l-1.6,0.8C62.2,128.9,59.2,127.2,59.9,123.1z"/>
	</g>
	<path class="st3" d="M129.5,98c7.5-0.3,16,0.7,25.9,9.3c6.9,5.9,11.5,18.3,11.5,18.3c-13.6-22.1-25.6-22.5-36.5-20.7
		C120.3,106.6,120,98.4,129.5,98z"/>
	<g>
		<path class="st4" d="M156.4,136.4c0.3,1.8,1,6.8,3.3,8.2l-7.5-0.7C152,138.1,156,134.6,156.4,136.4z"/>
		<g>
			<path class="st4" d="M152.1,140c1.5-0.4,3.7-2.1,3.8-2.7c0.1-0.6-4.9-5-4.9-5L152.1,140z"/>
			<path class="st14" d="M124.7,142.9c-1.6-0.3-4.1-1.8-4.2-2.4c-0.1-0.5,3.8-5.4,3.8-5.4L124.7,142.9z"/>
			<path class="st4" d="M123.4,140.4c-0.3-8.9,6.6-16.9,14.6-17.2c8.1-0.3,14.9,6.7,15.2,15.6c0.3,8.9-5.8,13.2-13.9,13.5
				C131.3,152.6,123.7,149.3,123.4,140.4z"/>
			<path class="st10" d="M125.2,138.1c-0.3-7.7,5.5-13.8,13-13.6c7.5,0.2,13.8,6.5,14.1,14.1c0.3,7.7-5.6,12.4-13.1,12.3
				C131.7,150.8,125.4,145.8,125.2,138.1z"/>
			<path class="st15" d="M138.4,149.1c7.5,0.2,13.4-5,13.1-12.6c0-1.2-0.3-2.4-0.6-3.6c0.8,1.8,1.3,3.7,1.4,5.7
				c0.3,7.7-5.6,12.8-13.1,12.6c-6.4-0.1-11.8-4-13.5-9.9C128,146,132.8,149,138.4,149.1z"/>
			<path class="st9" d="M131.7,139.6c-0.1-3.8,3-7,6.9-7.1c4-0.1,7.3,2.8,7.4,6.6c0.1,3.8-3,7-6.9,7.1
				C135.2,146.3,131.9,143.4,131.7,139.6z"/>
			<path class="st16" d="M120.5,140.4c3.2-7.9,8.2-15.6,16.4-15.9c7.4-0.3,17.1,5.5,18.6,12.7C147.9,129.5,130.6,129.9,120.5,140.4z
				"/>
			<path class="st2" d="M155.1,135.7c-1.7-5.8-20.1-14.4-33.9,3.1c0,0,3.8-18.1,17.6-18.6C154.9,119.6,155.1,135.7,155.1,135.7z"/>
			<path class="st10" d="M142.3,141.4c-0.1-1.4,0.9-2.5,2.1-2.6c1.2,0,2.2,1,2.3,2.4c0.1,1.4-0.9,2.5-2.1,2.6
				C143.3,143.9,142.3,142.8,142.3,141.4z"/>
			<path class="st10" d="M142.1,137.2c-0.4-0.7-0.5-1.5,0-1.8c0.4-0.3,1.1,0,1.5,0.7c0.4,0.7,0.5,1.5,0,1.8
				C143.2,138.3,142.5,137.9,142.1,137.2z"/>
		</g>
		<path class="st4" d="M120.2,141c2,0.1,7.2-11.3,18.1-11.8c11-0.5,16.2,6.7,17.4,8.6c0,0,1.5-1.4-0.4-4.1c-2-2.7-9.7-9-17.7-7
			c-9.6,2.4-16.2,13.4-20.1,13L120.2,141z"/>
		<path class="st1" d="M152.4,145.8c0,0-2.3,8.5-13.7,8.2c-8.8-0.2-14.2-6.6-15.5-11.2c0,0,8.4,5.5,17.5,4.8
			C149.8,147,152.4,145.8,152.4,145.8z"/>
		<path class="st4" d="M119.1,140.5c5.7,2.3,9.9,11,23.3,9.2c13.5-1.8,10.4-4.6,21-3.3c0,0-6.4-3.9-11-2.7
			c-4.6,1.3-11.8,4.4-18.6,2.8C128.4,145.2,123.2,140.5,119.1,140.5z"/>
		<path class="st4" d="M162.7,132.1c0,0-4.9,3.1-8.2,2.3l1.2,1.4C155.7,135.8,160.3,135.8,162.7,132.1z"/>
		<path class="st4" d="M163.7,137.3c0,0-5.7,1.1-8.4-1l0.5,1.7C155.8,138.1,160.1,139.8,163.7,137.3z"/>
		<path class="st4" d="M160.2,129.1c0,0-3.9,4.3-7.3,4.3l1.5,1.1C154.4,134.5,158.8,133.3,160.2,129.1z"/>
		<path class="st4" d="M157.9,127.1c0,0-3.6,4.6-7,4.8l1.6,1C152.5,132.9,156.8,131.3,157.9,127.1z"/>
		<path class="st4" d="M154.6,125c0,0-3.2,4.8-6.5,5.4l1.6,0.8C149.7,131.2,153.9,129.4,154.6,125z"/>
		<path class="st4" d="M150.8,123.1c0,0-1.2,4.6-3.9,5l1.6,0.8C148.6,128.9,151.5,127.2,150.8,123.1z"/>
	</g>
	<path class="st3" d="M128.3,38.7c-24.8-20.3-43.3,28.5,9,34.4c0.2,0,0.3-0.1,0.5-0.2C100.7,61.6,115.1,39.4,128.3,38.7z"/>
</g>
<g>
</g>
<g>
</g>
<g>
</g>
<g>
</g>
<g>
</g>
</svg>
