<?xml version="1.0" encoding="utf-8"?>
<!-- Generator: Adobe Illustrator 24.0.2, SVG Export Plug-In . SVG Version: 6.00 Build 0)  -->
<svg version="1.1" id="Layer_1" xmlns="http://www.w3.org/2000/svg" xmlns:xlink="http://www.w3.org/1999/xlink" x="0px" y="0px"
	 viewBox="0 0 202.1 248.5" style="enable-background:new 0 0 202.1 248.5;" xml:space="preserve">
<style type="text/css">
	.st0{fill:#542D2A;}
	.st1{fill:#FFBB88;}
	.st2{fill:#FF9769;}
	.st3{fill:#663E39;}
	.st4{fill:#563C38;}
	.st5{fill:#D82525;}
	.st6{fill:#F74743;}
	.st7{fill:#FF5252;}
	.st8{fill:#E83434;}
	.st9{fill:#F45540;}
	.st10{fill:#FFFEEE;}
	.st11{fill:#F7E7D0;}
	.st12{fill:#3F322D;}
	.st13{opacity:0.5;fill:#E05555;}
</style>
<g>
	<path class="st0" d="M188.7,69.1H13.6C16.4,94.9-1.2,199.7,2.1,213.9c7.6,32.9,190.3,33.9,198.1,0C203.5,199.7,186,94.9,188.7,69.1
		z"/>
	<path class="st1" d="M159.2,184.8c24.5-1.5,44.2-34.7,31.9-50.9C168.8,104.2,130,186.5,159.2,184.8z"/>
	<path class="st2" d="M168,174.7c16.2-2.6,27-26.1,17.8-36C168.9,120.5,148.7,177.8,168,174.7z"/>
	<path class="st1" d="M45.2,189.5c-24.3-2-42.7-34-29.4-47.7C38.4,118.5,72.7,191.8,45.2,189.5z"/>
	<path class="st2" d="M41.7,183.1c-18.2-1.5-32-25.3-22-35.6C36.6,130.1,62.3,184.8,41.7,183.1z"/>
	<path class="st3" d="M189.7,36.2c-18-41.4-65-37.1-92.7-30.3C74.4-1.8,39.1-5.5,18,34.6C-16.1,99.5,36.7,203,74.2,227l60.5-2.7
		C164.7,201.3,219.1,103.6,189.7,36.2z"/>
	<path class="st0" d="M190.6,38.5c-7,23.8-45.5,41.9-92,41.9c-39.3,0-72.9-13-86.6-31.4c-20.7,64.8,27.3,155.7,62.2,178l60.5-2.7
		C164.4,201.6,217.9,105.8,190.6,38.5z"/>
	<path class="st1" d="M173.2,152.8c0-75.1-17.8-99.9-67-99.9c-49.1,0-67,20-67,99.9c0,56.9,45.9,90.7,67.9,90.8
		C128.2,241.8,173.2,205.7,173.2,152.8z"/>
	<path class="st2" d="M115.3,168.9c-7.8-13.2-9.1-28.4-8.2-37.5c0,0-2.6,11.8,1.2,26.4c1.2,4.4,6.7,12.4,5.5,13.8
		c-1.6,2-4.4,3.6-7.7,3.6c-5.3,0-9.3-3.9-8.9-6.9c-2.1,3.4,1.6,9.2,8.6,9.2C113.1,177.7,117.7,173,115.3,168.9z"/>
	<path class="st2" d="M164.2,163.4c0.4-3.6-3.6-7.1-9.9-7.8c-7.9-0.8-15.8,3.1-15.5,8.6c0.3,5.1,7.7,8,14.9,6.9
		C159.6,170.3,163.9,166.9,164.2,163.4z"/>
	<path class="st2" d="M46.6,161.3c0.4-3.6,4.7-6.3,10.6-5.7c7.5,0.7,14,6.1,12.7,11.4c-1.2,5-8.6,6.4-15.1,3.9
		C49.5,168.9,46.2,164.8,46.6,161.3z"/>
	<path class="st2" d="M111.5,219.5c0.2-0.5-2.2-1.7-5.4-2.7c-3.1-1-5.8-1.5-5.9-1c-0.2,0.5,2.2,1.7,5.4,2.7
		C108.7,219.5,111.4,219.9,111.5,219.5z"/>
	<path class="st4" d="M142,194.9c0-0.6-0.5-1-1.2-1c-0.6,0-1.2,0.5-1.2,1c0,0.6,0.5,1,1.2,1C141.5,195.9,142,195.5,142,194.9z"/>
	<g>
		<path class="st5" d="M84,208.5c1.9-1.8,8.1-5.3,12.8-3.4c4.7,1.9,14.9,6.3,22.7,2.6c7.8-3.7,8.4-9.6,13.1-8.1l-0.2-1.5
			c0,0-27.9-6.3-34-4C90.8,196.9,84,208.5,84,208.5z"/>
		<path class="st6" d="M85,207.3c1.9-1.8,7-4.5,11.6-2.7c4.7,1.8,14.7,5.2,22.5,1.5c7.8-3.6,8.4-8.1,13-6.8l0-1.9
			c0,0-27.7-5.8-33.8-3.5C90.8,196.9,85,207.3,85,207.3z"/>
		<path class="st7" d="M116.8,201.6c-1.9-1.7-10.7-3.5-13.9-3.6c-2.9-0.1-4.5,0.7-4.4,1.7c0,1.2,3.2,3.8,7.5,4.5
			C113.3,205.7,119.3,203.9,116.8,201.6z"/>
		<path class="st8" d="M85.4,206.9c0.4-1.5,4.7-9.4,18.3-11.6c0,0,15.8,4,19.5,3.3c1.9-0.4,3.4-1.3,5.3-1.4c1-0.1,2.8,0.1,3.4,1.3
			c-0.6-0.5-2.4-0.7-3.7-0.4c-1.8,0.3-4.1,2.2-6.4,2.4c-6.3,0.6-13.6-3.5-20.1-3.1c-7.1,0.4-10.6,4.1-13.1,6.6
			C86.8,205.6,85.4,206.9,85.4,206.9z"/>
		<path class="st8" d="M130.4,197.5c-1.2-0.3-4.4,4-11.7,7.4c-7.3,3.4-16.9-0.1-21.3-1.8c-4.3-1.7-9.3,0.4-11.2,2l-1.3,2.3
			c1.9-1.8,7-4.5,11.6-2.7c4.7,1.8,14.9,5.6,22.7,1.9c7.8-3.6,8.2-8.5,12.8-7.1C132.1,198.2,131.6,197.7,130.4,197.5z"/>
		<path class="st6" d="M80.2,209.6c2.3-0.9,3.1-1.8,3.5-2.8c0.3-0.7,6.4-14.7,15.4-17.4c2.1-0.6,5.9,0.4,7.3-0.2
			c1.5-0.5,4.9-2.7,6-2.7c4.1,0,11.5,10.1,15.2,9.4c3.7-0.7,6.1,2.4,5.1,4.2c0,0-2.7-3.8-5-2.9c-7.9,3.1-21-1.7-27.1-0.5
			c-3.3,0.7-9.6,0.8-16.2,11.6C83.5,209.9,80.2,209.6,80.2,209.6z"/>
		<path class="st8" d="M127.7,195.9c-0.6,0.1-1.3,0-2-0.4c-2.3,1.2-6.2,1.7-10.1,0.7c-4.9-1.2-9.5-3.4-9.1-7
			c-0.2,0.1-1.8,0.1-2.1,0.1c-0.5,3-3.1,5-6.5,5.9c-5,1.3-11.3,5.2-14.1,11.5c-0.5,1-1.2,1.9-3.5,2.8c0,0,3.2,0.3,4.2-1.4
			c6.6-10.8,12.9-11,16.2-11.6c6-1.2,19,4.8,26.5,1c2.3-1.2,5.6,2.4,5.6,2.4C133.8,198.3,131.4,195.1,127.7,195.9z"/>
		<path class="st5" d="M85.4,206.9c0.4-1.5,4.9-9.2,18.6-11.4c0,0,14,4.1,19.2,3.1c1.9-0.4,3.4-1.3,5.3-1.4c1-0.1,2.8,0.1,3.4,1.3
			c-0.6-0.5-1.7-1.2-3.6-1c-1.8,0.2-3.7,1.5-6.1,1.7c-6.3,0.6-16.4-2.8-19.9-2.6C90.6,197.5,85.4,206.9,85.4,206.9z"/>
		<path class="st5" d="M88.6,202.7c0,0-2,1.4-3.8,5.1l2.6-1.7C87.4,206.1,86.9,204.6,88.6,202.7z"/>
		<path class="st5" d="M129.2,199.7c1.2-0.6,1.7-1.8,0.6-2.3c0,0,2.2,0.1,2.6,2.2C132.4,199.6,130.7,199.1,129.2,199.7z"/>
		<path class="st7" d="M98,199.2c-0.4,0.6-2.1,0.9-1.9,0.3c0.2-0.6,1.1-1,1.4-1C97.9,198.5,98.4,198.7,98,199.2z"/>
		<path class="st5" d="M103.4,194.7c0,0,0.1,0.9-0.5,1.1l2.9,0.1C105.8,195.9,104,195.3,103.4,194.7z"/>
		<path class="st7" d="M118.5,192c-1.2,0.4-10.8-0.9-10.4-2.3c0.4-1.4,3.6-2.9,4.7-2.7C114.9,187.3,119.5,191.7,118.5,192z"/>
		<path class="st8" d="M111.7,203.4c0,0,0.2,2.9-0.4,3.3l2.4,0C112.9,206.2,111.9,204.9,111.7,203.4z"/>
		<path class="st8" d="M101.3,203c0,0-0.3,1.6-1,1.7l2.4,0.5C102,204.7,101.3,203.8,101.3,203z"/>
		<path class="st8" d="M105.4,198.9c0,0-0.5-1.6-0.1-1.7l-1.8-0.2C104.1,197.3,105,198.1,105.4,198.9z"/>
		<path class="st5" d="M105.7,194.4c0,0,0.2,1.6-0.2,1.7l1.7,0.6C106.6,196.2,105.9,195.2,105.7,194.4z"/>
		<path class="st5" d="M122.8,198.8l-3.6,0.3c2.1,0.3,3.8,0.3,5.7-0.1C124.9,199,123.7,199.2,122.8,198.8z"/>
		<path class="st7" d="M108,189.4c-0.3,0.5-0.9,1-1,0.9c-0.1-0.1-0.3-0.7,0-0.9C107.2,189.1,108.7,188.3,108,189.4z"/>
		<path class="st7" d="M102.3,189.6c0.4,0.1-0.1,2.6-2.4,3.4c-2.3,0.8-8.8,2.9-8.1,1.8C92.5,193.7,97.1,188.5,102.3,189.6z"/>
		<path class="st7" d="M103,189.8c0.3-0.1,0.8,0,0.8,0.2c0,0.2-0.6,1.1-0.8,1.1C102.8,191,102.8,189.9,103,189.8z"/>
		<path class="st8" d="M94.3,202.5c-1.1,0.1-3.6-0.7-2-1.9c0,0-2.3,0.8-4,3.4L94.3,202.5z"/>
		<path class="st7" d="M119.1,191.8c-0.2-0.6-0.3-0.9-0.1-0.9c0.2,0,2.4,1.8,2.2,1.9C121,193.1,119.5,193,119.1,191.8z"/>
		<path class="st6" d="M125.3,197c-0.9,0.2-2.4-0.1-2.2-0.3c0.2-0.2,2.6-1.2,2.8-1C126.1,195.9,126.8,196.8,125.3,197z"/>
	</g>
	<path class="st4" d="M125.6,111.4c6.8-2.5,14.7-4.2,26-0.2c7.7,2.8,15.1,11.4,15.1,11.4c-18-13.9-29-10.7-38.5-5.9
		C119.5,121,117.1,114.5,125.6,111.4z"/>
	<g>
		<path class="st4" d="M158.2,136.1c0.4,1.7,1.2,6.3,3.3,7.4l-6.8-0.4C154.4,137.8,157.8,134.4,158.2,136.1z"/>
		<g>
			<path class="st9" d="M131.6,142.3c-1.4-0.1-7.3-2.2-7.4-2.7c-0.1-0.5,6.7-7.5,6.7-7.5L131.6,142.3z"/>
			<path class="st4" d="M156.2,139.2c1.7-7.8-0.1-12.7-7.2-14.2c-7.1-1.5-17.2,0.4-18.8,8.1c-1.7,7.8,2.7,15.3,9.8,16.8
				C147,151.4,154.5,146.9,156.2,139.2z"/>
			<path class="st10" d="M154.9,137.3c1.5-6.9-0.7-10.5-7.2-11.9c-6.5-1.4-14.7,0-16.2,6.9c-1.5,6.9,2.8,12.4,9.3,13.8
				C147.3,147.4,153.4,144.2,154.9,137.3z"/>
			<path class="st11" d="M141.8,144.6c-6.5-1.4-10.7-7.2-9.2-14.1c0.2-1.1,0.6-2.2,1.1-3.1c-1,1.4-1.8,3.1-2.1,4.9
				c-1.5,6.9,2.7,12.8,9.2,14.2c5.5,1.2,10.8-1.3,13.2-6.3C151.2,143.9,146.6,145.6,141.8,144.6z"/>
			<path class="st12" d="M147.9,137.3c0.6-3-1.1-5.9-4-6.5c-2.8-0.6-5.6,1.3-6.3,4.3c-0.6,3,1.1,5.9,4,6.5
				C144.4,142.2,147.2,140.3,147.9,137.3z"/>
			<path class="st10" d="M146.2,142.3c1-0.4,1.6-1.5,1.2-2.3c-0.3-0.8-1.5-1.1-2.5-0.6c-1,0.4-1.6,1.5-1.2,2.3
				C144,142.5,145.1,142.8,146.2,142.3z"/>
			<path class="st10" d="M147.3,137.8c0.2-0.4,0.1-0.9-0.3-1.1c-0.3-0.1-0.8,0.1-1,0.5c-0.2,0.4-0.1,0.9,0.3,1.1
				C146.7,138.5,147.1,138.3,147.3,137.8z"/>
			<path class="st13" d="M159,139.9c-1.6-7.4-5.7-13.3-12.9-14.9c-6.2-1.3-14.2,1.8-16.9,7.4c0.4,1.2,0.5,0.8,0.8,1.1
				c4.7,0.5,21.9,4.6,25.6,7.3C156.6,140.9,158.8,140.4,159,139.9z"/>
			<path class="st2" d="M127.8,133.1c8.5-1,21.1-2,30.6,5.1c0,0,4.8-12.6-7.2-15.2C137.1,119.9,127.8,133.1,127.8,133.1z"/>
		</g>
		<path class="st4" d="M130.4,133.4c5.6-1.1,23.9-1,28.3,7.5c0,0,1.5-1.1,0-3.8c-3.7-6.7-24.9-7.1-28.9-5.7
			C129.1,131.7,129.9,133.5,130.4,133.4z"/>
		<path class="st1" d="M156.1,143.6c0,0-1.7,8-12.1,8.2c-8,0.2-13.1-5.5-14.5-9.7c0,0,7.8,4.7,16,3.8
			C153.8,144.8,156.1,143.6,156.1,143.6z"/>
		<path class="st4" d="M122.6,139.7c6.4,1.4,12.3,10.3,24.2,8.4c11.8-1.9,9-4.5,18.4-3.5c0,0-5.8-3.5-9.8-2.2
			c-4,1.3-10.3,4.4-16.3,3C134.2,144.3,128.2,139.2,122.6,139.7z"/>
		<path class="st4" d="M164,134.7c0,0-4.1,3.4-7.1,3l1.2,1.2C158.1,138.8,162.2,138.3,164,134.7z"/>
		<path class="st4" d="M161.5,132.2c0,0-3.1,4.4-6.1,4.7l1.4,0.8C156.8,137.7,160.7,136.1,161.5,132.2z"/>
		<path class="st4" d="M159.2,130.5c0,0-2.7,4.6-5.8,5.2l1.5,0.7C154.9,136.4,158.6,134.6,159.2,130.5z"/>
		<path class="st4" d="M156,129c0,0-2.4,4.8-5.3,5.7l1.6,0.6C152.3,135.3,155.8,133.1,156,129z"/>
		<path class="st4" d="M152.4,127.7c0,0-0.6,4.3-3,5l1.5,0.6C151,133.3,153.5,131.4,152.4,127.7z"/>
		<path class="st4" d="M122.6,139.7c4.9-1.2,3.5-8.2,7.5-8.3l6.8,1.1c0,0-6.3,0-7.7,1.7c-1.4,1.7-2.6,5.6-5.8,5.6
			C120.1,139.8,120.4,140.3,122.6,139.7z"/>
	</g>
	<path class="st4" d="M88,98c-7.2-0.6-15.3-0.2-25.1,6.6c-6.7,4.7-11.6,15-11.6,15c13.7-18.1,25.2-17.9,35.6-15.8
		C96.5,105.7,97.1,98.8,88,98z"/>
	<g>
		<path class="st4" d="M57.8,132.5c-0.5,1.7-1.5,6.3-3.7,7.3l6.8-0.1C61.5,134.4,58.2,130.8,57.8,132.5z"/>
		<g>
			<path class="st9" d="M84,140c1.4-0.1,7.4-1.9,7.6-2.4c0.2-0.5-6.3-7.8-6.3-7.8L84,140z"/>
			<path class="st4" d="M59.6,135.7c-1.3-7.8-1.9-13,5.2-14.2c7.1-1.2,20.3,3.4,21.1,9.3c1.3,7.8-3.4,15.2-10.5,16.3
				C68.2,148.4,60.9,143.5,59.6,135.7z"/>
			<path class="st10" d="M61,133.8c-1.2-7-3.1-10.2,3.4-11.3c6.5-1.1,19,0.4,20.2,7.4c1.2,7-3.4,12.3-9.9,13.4
				C68.1,144.4,62.1,140.8,61,133.8z"/>
			<path class="st11" d="M73.7,141.8c6.5-1.1,11-6.7,9.9-13.7c-0.2-1.1,0.7,0,1,1.8c1.2,7-3.3,12.6-9.9,13.7
				c-5.5,0.9-10.8-1.8-12.9-6.9C64.3,140.6,68.9,142.6,73.7,141.8z"/>
			<path class="st12" d="M68,134.2c-0.5-3,1.4-5.9,4.3-6.3c2.9-0.5,5.6,1.6,6.1,4.6c0.5,3-1.4,5.9-4.3,6.3
				C71.2,139.3,68.5,137.2,68,134.2z"/>
			<path class="st10" d="M75,135.4c0.6-1,1.6-1.4,2.4-1c0.8,0.4,0.9,1.6,0.4,2.5c-0.6,1-1.6,1.4-2.4,1
				C74.6,137.6,74.4,136.4,75,135.4z"/>
			<path class="st10" d="M76.5,133c-0.2-0.4,0-0.9,0.3-1c0.3-0.1,0.8,0.1,0.9,0.6c0.2,0.4,0,0.9-0.3,1
				C77.1,133.7,76.7,133.5,76.5,133z"/>
			<path class="st13" d="M56.8,136.3c1.9-7.4,3.1-12.8,10.3-14c6.2-1,17.3,2.5,19.8,8.3c-0.4,1.2-0.5,0.4-0.8,0.8
				c-4.7,0.3-22.1,3.5-25.9,6.1C59.2,137.4,56.9,136.8,56.8,136.3z"/>
			<path class="st2" d="M88.3,130.9c-8.5-1.4-21-2.9-30.8,3.6c0,0-5.8-11.8,6.3-13.8C78,118.4,88.3,130.9,88.3,130.9z"/>
		</g>
		<path class="st4" d="M85.6,131.2c-5.6-1.3-23.8-2.1-28.6,6.2c0,0-1.5-1.2,0.2-3.8c4-6.5,25.3-5.9,29.1-4.3
			C87,129.5,86.1,131.3,85.6,131.2z"/>
		<path class="st1" d="M59.5,140.1c0,0,1.4,8,11.7,8.7c7.9,0.5,13.4-4.9,14.9-9c0,0-8,4.3-16.2,3C61.8,141.5,59.5,140.1,59.5,140.1z
			"/>
		<path class="st4" d="M93.1,137.8c-6.5,1.1-12.8,9.7-24.6,7.3c-11.7-2.5-8.8-4.9-18.2-4.4c0,0,6-3.2,9.9-1.8
			c3.9,1.5,10,4.8,16.2,3.8C81.3,141.8,87.6,137,93.1,137.8z"/>
		<path class="st4" d="M52,130.8c0,0,3.9,3.6,6.9,3.3l-1.2,1.1C57.7,135.3,53.6,134.5,52,130.8z"/>
		<path class="st4" d="M54.6,128.4c0,0,2.9,4.5,5.9,5l-1.5,0.8C59.1,134.2,55.3,132.4,54.6,128.4z"/>
		<path class="st4" d="M57,126.9c0,0,2.5,4.7,5.5,5.5L61,133C61,133,57.4,131,57,126.9z"/>
		<path class="st4" d="M60.2,125.5c0,0,2.1,4.9,5,5.9l-1.6,0.5C63.7,132,60.2,129.6,60.2,125.5z"/>
		<path class="st4" d="M63.9,124.4c0,0,0.4,4.4,2.7,5.1l-1.6,0.5C65.1,130,62.7,128,63.9,124.4z"/>
		<path class="st4" d="M93.1,137.8c-4.8-1.5-3.2-8.3-7.1-8.6l-6.8,0.8c0,0,6.3,0.3,7.6,2.1c1.4,1.7,2.3,5.7,5.5,5.9
			C95.6,138,95.3,138.5,93.1,137.8z"/>
	</g>
	<path class="st3" d="M142.8,54.5c-24.8-20.3-43.3,28.5,9,34.4c0.2,0,0.3-0.1,0.5-0.2C115.2,77.5,129.6,55.2,142.8,54.5z"/>
</g>
<g>
</g>
<g>
</g>
<g>
</g>
<g>
</g>
<g>
</g>
</svg>
