<?xml version="1.0" encoding="utf-8"?>
<!-- Generator: Adobe Illustrator 24.0.2, SVG Export Plug-In . SVG Version: 6.00 Build 0)  -->
<svg version="1.1" id="Layer_1" xmlns="http://www.w3.org/2000/svg" xmlns:xlink="http://www.w3.org/1999/xlink" x="0px" y="0px"
	 viewBox="0 0 202.1 248.5" style="enable-background:new 0 0 202.1 248.5;" xml:space="preserve">
<style type="text/css">
	.st0{fill:#542D2A;}
	.st1{fill:#FFBB88;}
	.st2{fill:#FF9769;}
	.st3{fill:#663E39;}
	.st4{fill:#563C38;}
	.st5{fill:#D82525;}
	.st6{fill:#F74743;}
	.st7{fill:#E83434;}
	.st8{fill:#3F322D;}
	.st9{fill:#3A2D29;}
	.st10{fill:#332723;}
	.st11{fill:#231A18;}
	.st12{fill:#FFFEEE;}
	.st13{fill:#FFE9CF;}
	.st14{fill:#ED4845;}
	.st15{fill:#FF6666;}
	.st16{fill:#FF7E78;}
	.st17{fill:#FF8E85;}
	.st18{fill:#FF5252;}
	.st19{fill:#F2D5B1;}
	.st20{fill:#FFB3B3;}
	.st21{fill:#F45540;}
	.st22{fill:#F7E7D0;}
	.st23{opacity:0.5;fill:#E05555;}
</style>
<g>
	<path class="st0" d="M184.2,67.7H17.1C19.7,92.8,2.9,195.1,6.1,209c7.3,32.2,181.6,33.1,189.1,0C198.3,195.1,181.6,92.8,184.2,67.7
		z"/>
	<path class="st1" d="M156.1,180.6c23.4-1.4,42.2-33.9,30.5-49.7C165.2,101.9,128.2,182.3,156.1,180.6z"/>
	<path class="st2" d="M164.4,170.7c15.5-2.6,25.8-25.4,17-35.2C165.3,117.8,145.9,173.8,164.4,170.7z"/>
	<path class="st1" d="M47.2,185.2c-23.2-2-40.8-33.2-28.1-46.6C40.8,115.8,73.5,187.4,47.2,185.2z"/>
	<path class="st2" d="M43.8,178.9c-17.4-1.5-30.5-24.7-21-34.7C39,127.2,63.5,180.5,43.8,178.9z"/>
	<path class="st3" d="M185.1,35.5c-17.2-40.4-62-36.2-88.5-29.6C75-1.7,41.4-5.2,21.3,33.9c-32.6,63.4,17.8,164.4,53.7,187.9
		l57.7-2.6C161.3,196.7,213.2,101.3,185.1,35.5z"/>
	<path class="st0" d="M186,37.7c-6.7,23.2-43.5,40.9-87.8,40.9C60.7,78.6,28.6,66,15.5,48c-19.7,63.3,26.1,152,59.4,173.8l57.7-2.6
		C161,196.9,212,103.4,186,37.7z"/>
	<path class="st1" d="M169.4,149.3c0-73.3-17-97.5-63.9-97.5s-63.9,19.5-63.9,97.5c0,55.5,43.9,94.2,64.8,94.3
		C126.5,241.9,169.4,200.9,169.4,149.3z"/>
	<path class="st2" d="M113.3,156.6c-7.2-10.7-8.4-23.1-7.6-30.5c0,0-2.4,9.6,1.1,21.5c1.1,3.6,6.2,10.1,5.1,11.2
		c-1.4,1.7-4.1,2.9-7.1,2.9c-4.9,0-8.6-3.2-8.2-5.6c-1.9,2.8,1.4,7.5,7.9,7.5C111.3,163.7,115.6,159.9,113.3,156.6z"/>
	<path class="st2" d="M160.9,161.2c0.3-3.6-3.4-7-9.4-7.6c-7.6-0.8-15,3-14.8,8.4c0.3,5,7.3,7.8,14.2,6.7
		C156.5,167.9,160.6,164.6,160.9,161.2z"/>
	<path class="st2" d="M48.1,158.8c0.3-3.6,4.5-6.2,10.1-5.6c7.1,0.7,13.4,5.9,12.1,11.1c-1.2,4.9-8.2,6.2-14.4,3.8
		C51,166.2,47.8,162.3,48.1,158.8z"/>
	<path class="st2" d="M110.8,224.3c0-0.5-2.5-0.9-5.7-0.9c-3.1,0-5.7,0.4-5.7,0.9c0,0.5,2.5,0.9,5.7,0.9
		C108.2,225.2,110.8,224.8,110.8,224.3z"/>
	<path class="st4" d="M138.9,204.4c0-0.6-0.5-1-1.1-1c-0.6,0-1.1,0.4-1.1,1c0,0.6,0.5,1,1.1,1C138.4,205.4,138.9,205,138.9,204.4z"
		/>
	<g>
		<path class="st5" d="M127.7,204.9c0-0.7-44.8-3.5-44.8,1.2c0,4.9,5.9,15.5,8.4,18.6c3.7,4.6,21,5.2,25.9,0.8
			C125.2,218.2,127.8,206.9,127.7,204.9z"/>
		<path class="st6" d="M82.8,205.8c0.1-3.3,2.3-29.4,8.4-33.1c6.2-3.7,10.5,1.8,13.7,1.3c3.2-0.5,9.6-3.1,12.5-1.7
			c6.4,3,10.4,30.7,10.5,31.9c0.1,1.1-3.1,12.5-11,19.6c-4.9,4.4-21.4,4.1-25.1-0.6C89.3,220.3,82.7,208.5,82.8,205.8z"/>
		<path class="st7" d="M127.9,204.2c-0.1-0.7-1.5-10.4-3.9-18.9c-2,1-14.7-7.1-16-12.1c-1.2,0.3-2.3,0.6-3.2,0.7
			c-1.1,0.2-2.4-0.4-3.8-1c-0.5,4.5-10.3,12.6-15.8,13c-1.8,8.4-2.5,17.9-2.6,19.8c-0.1,2.6,6.1,14.9,8.6,17.9
			c3.7,4.6,21,5.2,25.9,0.8C125.2,217.4,128,205.4,127.9,204.2z M119.3,220.7c-2,2.5-7.9,6-14.7,5.9c-9-0.1-13.6-3.6-14.9-6.5
			c-7.9-17.5,7.9-12.5,14.7-12.4C111.2,207.8,133.6,202.6,119.3,220.7z"/>
		<path class="st5" d="M83.5,205.2c-0.1,1,7,13.4,21.5,13.1c16-0.3,21.6-13.9,21.6-13.9c-3-19.1-11.5-25.4-20.9-25.5
			C92.5,178.7,85.2,191.3,83.5,205.2z"/>
		<path class="st8" d="M83.6,204.8c-0.1,0.9,7.3,13.1,21.4,12.8c15.6-0.3,21.5-13.6,21.5-13.6c-2.9-18.4-12.2-24.1-20.8-24.3
			C92.8,179.5,85.2,191.4,83.6,204.8z"/>
		<path class="st9" d="M86.8,205.3c-0.1,0.8,6.2,11.2,18.2,11c13.2-0.2,18.3-11.6,18.3-11.6c-2.5-16-10.4-20.6-17.7-20.8
			C94.6,183.6,88.2,193.7,86.8,205.3z"/>
		<path class="st10" d="M90.8,206.3c-0.1,0.6,4.8,8.5,14,8.3c10.1-0.2,14-8.8,14-8.8c-1.9-12.2-8-15.7-13.6-15.8
			C96.7,189.8,91.8,197.5,90.8,206.3z"/>
		<path class="st11" d="M94.8,206.9c-0.1,0.4,3.4,6.1,10,5.9c7.2-0.1,10-6.3,10-6.3c-1.4-8.7-5.7-11.2-9.7-11.3
			C99,195.2,95.5,200.6,94.8,206.9z"/>
		<path class="st10" d="M102.5,195.3c3.6-0.6-0.4,5.6,2.3,5.8c3.9,0.3-1.2-6.9,3.4-5.3c0,0-1.2-1.7-3.7-1.9
			C102,193.7,102.5,195.3,102.5,195.3z"/>
		<path class="st12" d="M90.3,191.7c-0.6,0-0.7-1.5,0.3-3.2c1-1.6,6.6-7.6,14.6-7.5c8,0.1,13.4,4.5,15.8,8.7
			c0.6,1.1,0.5,2.4-0.1,2.5c-0.5,0.1-5-4.3-15.4-4.5C95.9,187.5,90.9,191.6,90.3,191.7z"/>
		<path class="st13" d="M121,191.4c-0.5,0.1-5.2-4.2-15.6-4.4c-9.7-0.1-14.5,3.8-15.1,3.8c-0.2,0-0.4-0.2-0.4-0.6
			c-0.1,0.8,0.1,1.3,0.4,1.3c0.6,0,5.5-3.9,15.2-3.8c10.5,0.2,15,4.4,15.5,4.3c0.3-0.1,0.5-0.7,0.4-1.4
			C121.3,191.2,121.2,191.4,121,191.4z"/>
		<path class="st14" d="M107.9,203.5l11.8,5l3.3-1.7C121.1,202.6,113.3,202.4,107.9,203.5z"/>
		<path class="st14" d="M100.7,203.4l-10.4,5.2l-3.3-1.8C89.1,202.7,95.4,202.2,100.7,203.4z"/>
		<path class="st15" d="M87.6,207.5c2.2-1.7,6.1-6.5,16.4-3.2c0,0,13.6-4.1,18.4,3.3C123.3,209.7,101.8,222.7,87.6,207.5z"/>
		<path class="st16" d="M88.7,207.8c2-1.6,5.7-6.6,15.3-3.5c0,0,12.8-3.4,17.3,3.6C122.2,209.9,102,222,88.7,207.8z"/>
		<path class="st17" d="M104.3,205.1c-0.3-1.2-4.4-2.3-8.3-1.7c-3.9,0.6-7.1,2.7-6.9,3.9c0.2,1.2,4.7,2.4,8.6,1.8
			C101.6,208.5,104.8,207.5,104.3,205.1z"/>
		<path class="st17" d="M104.6,206.2c1.2-2.4,4.2-3.1,8.1-2.8c3.9,0.3,8,2.1,7.9,3.4c-0.1,1.2-6.1,3.3-10.1,3.1
			C106.7,209.6,103.4,208.5,104.6,206.2z"/>
		<g>
			<path class="st15" d="M104.1,206.3c0.4-1.2,1.4-2.1,2.8-2.7c-1.8,0.3-3,0.7-3,0.7c-0.2-0.1-0.5-0.2-0.7-0.2
				C103.9,204.5,104.1,205.2,104.1,206.3z"/>
			<path class="st15" d="M122.4,207.7c-0.5-0.7-1-1.4-1.7-1.9c-1.4,1.6-19.3,7.5-31.5,0.4c-0.6,0.5-1.2,1-1.6,1.3
				C101.8,222.7,123.3,209.7,122.4,207.7z"/>
		</g>
		<path class="st12" d="M86.3,207.8c0,0,0.3-1.3,1.2-1.1c0.9,0.2,8,3.7,15.7,3.9c12,0.3,19.3-4.7,20-4.1c0.7,0.6,0.4,1.2,0.4,1.2
			s-7,10.5-20.8,9.2C91.1,215.8,86.3,207.8,86.3,207.8z"/>
		<path class="st18" d="M106.6,225.5c3.3-0.7,6.3-3.5,4.6-4.3c-5-2.3-22.3-2.6-18.4,0.7C96.6,225.2,104.8,225.9,106.6,225.5z"/>
		<path class="st19" d="M90.5,189.7c1-1.6,6.5-6.9,14.6-6.8c8,0.1,13.7,3.9,16,8.1c0.1,0.2,0.2,0.5,0.3,0.7c0.2-0.6,0.2-1.5-0.3-2.2
			c-2.4-4.2-8-9-16-9c-8-0.1-13.5,6.1-14.6,7.8c-0.7,1.1-0.9,2.4-0.7,3.1C90,190.7,90.2,190.2,90.5,189.7z"/>
		<path class="st12" d="M86.3,207.8c0,0,0.3-1.3,1.2-1.1c0.9,0.2,8,3.7,15.7,3.9c12,0.3,19.3-4.7,20-4.1c0.7,0.6,0.4,1.2,0.4,1.2
			s-7,10-20.8,8.7C91.1,215.3,86.3,207.8,86.3,207.8z"/>
		<path class="st13" d="M87.5,207.2c0.9,0.2,8,3.7,15.7,3.9c12,0.3,19.3-4.7,20-4.1c0.2,0.2,0.3,0.3,0.4,0.5
			c0.1-0.2,0.1-0.7-0.4-1.1c-0.7-0.6-8,4.4-20,4.1c-7.8-0.2-14.8-3.7-15.7-3.9c-0.9-0.2-1.2,1.1-1.2,1.1s0.1,0.1,0.2,0.3
			C86.6,207.5,86.9,207,87.5,207.2z"/>
		<path class="st19" d="M123.2,206.5c0,0-0.1-0.1-0.2-0.1c0.5,2.1-6.4,9.8-19.4,9.6c-9.7-0.1-17-7.4-16.6-9.4c-0.6,0.2-0.8,1-0.8,1
			s4.8,8,16.6,9.2c13.8,1.3,20.8-9.2,20.8-9.2S123.9,207.2,123.2,206.5z"/>
		<path class="st18" d="M93.9,171.9c-4.1,0.7-5.4,5.6-5.2,6.6c0.2,1.1,8.7-2.5,9.9-4.6C99.4,172.4,96.4,171.4,93.9,171.9z"/>
		<path class="st18" d="M116.5,172.3c-2.4-0.4-6.1,0.3-4.7,2.5c1.4,2.2,8,5.5,8.4,4.5C121,176.9,118.7,172.7,116.5,172.3z"/>
		<path class="st18" d="M110.8,174.2c-0.4,0.4-1.5-0.2-1.4-0.7c0.2-0.5,1.4-0.5,1.6-0.4C111.2,173.2,110.9,174,110.8,174.2z"/>
		<path class="st18" d="M100.1,173.9c-0.5,0-1.4-1.1-1.1-1.3c0.2-0.2,1.4,0.3,1.5,0.5C100.6,173.3,100.3,173.8,100.1,173.9z"/>
		<g>
			<path class="st5" d="M109.2,179.5c-1.8-0.8-2.4-2.1-2.6-2.5c0.3,0.9,0,2.2,0,2.2L109.2,179.5z"/>
		</g>
		<polygon class="st19" points="104.2,216.7 104.3,214.1 104.9,216.7 		"/>
		<path class="st20" d="M112.3,203.7c0-0.1-0.3-0.2-0.6-0.3c-0.3,0-0.6,0.1-0.6,0.2c0,0.1,0.3,0.2,0.6,0.2
			C112.1,204,112.3,203.9,112.3,203.7z"/>
		<path class="st20" d="M114.1,204.2c0-0.1-0.2-0.2-0.4-0.2c-0.2,0-0.4,0.1-0.4,0.2c0,0.1,0.2,0.2,0.4,0.2
			C113.9,204.3,114.1,204.3,114.1,204.2z"/>
		<path class="st20" d="M110.1,204.4c0-0.1-0.2-0.2-0.4-0.2c-0.2,0-0.4,0.1-0.4,0.2c0,0.1,0.2,0.2,0.4,0.2
			C109.9,204.6,110.1,204.5,110.1,204.4z"/>
		<path class="st15" d="M119.4,206.1c0-0.1-0.3-0.2-0.6-0.2c-0.3,0-0.6,0.1-0.6,0.2c0,0.1,0.3,0.2,0.6,0.2
			C119.1,206.3,119.4,206.2,119.4,206.1z"/>
		<path class="st15" d="M115.2,207.2c0-0.1-0.3-0.2-0.6-0.2c-0.3,0-0.6,0.1-0.6,0.2c0,0.1,0.3,0.2,0.6,0.2
			C114.9,207.4,115.2,207.3,115.2,207.2z"/>
		<path class="st15" d="M116.6,205.8c0-0.1-0.1-0.2-0.3-0.2c-0.2,0-0.3,0.1-0.3,0.2c0,0.1,0.1,0.2,0.3,0.2
			C116.5,205.9,116.6,205.9,116.6,205.8z"/>
		<path class="st16" d="M108.9,208.5c0-0.1-0.2-0.2-0.5-0.2c-0.3,0-0.5,0.1-0.5,0.2c0,0.1,0.2,0.2,0.5,0.2
			C108.7,208.7,108.9,208.6,108.9,208.5z"/>
		<path class="st16" d="M107.7,204.9c0-0.1-0.2-0.2-0.5-0.2c-0.3,0-0.5,0.1-0.5,0.2c0,0.1,0.2,0.2,0.5,0.2
			C107.4,205.1,107.7,205,107.7,204.9z"/>
		<path class="st16" d="M117.7,206.7c0-0.1-0.2-0.2-0.5-0.2c-0.3,0-0.5,0.1-0.5,0.2c0,0.1,0.2,0.2,0.5,0.2
			C117.4,206.9,117.7,206.8,117.7,206.7z"/>
		<path class="st15" d="M102.8,205c0-0.1-0.2-0.2-0.5-0.2c-0.3,0-0.5,0.1-0.5,0.2c0,0.1,0.2,0.2,0.5,0.2
			C102.6,205.2,102.8,205.1,102.8,205z"/>
		<path class="st20" d="M99.4,203.9c0-0.1-0.2-0.2-0.5-0.2c-0.3,0-0.5,0.1-0.5,0.2c0,0.1,0.2,0.2,0.5,0.2
			C99.2,204.1,99.4,204,99.4,203.9z"/>
		<path class="st20" d="M95.6,204.4c0-0.1-0.2-0.2-0.5-0.2c-0.3,0-0.5,0.1-0.5,0.2c0,0.1,0.2,0.2,0.5,0.2
			C95.4,204.6,95.6,204.5,95.6,204.4z"/>
		<path class="st20" d="M98,204.9c0-0.1-0.2-0.2-0.5-0.2c-0.3,0-0.5,0.1-0.5,0.2c0,0.1,0.2,0.2,0.5,0.2
			C97.8,205.2,98,205.1,98,204.9z"/>
		<path class="st16" d="M98.7,208.4c0-0.1-0.2-0.2-0.5-0.2c-0.3,0-0.5,0.1-0.5,0.2c0,0.1,0.2,0.2,0.5,0.2
			C98.5,208.6,98.7,208.5,98.7,208.4z"/>
		<path class="st15" d="M91.6,206.3c0-0.1-0.2-0.2-0.5-0.2c-0.3,0-0.5,0.1-0.5,0.2c0,0.1,0.2,0.2,0.5,0.2
			C91.4,206.5,91.6,206.4,91.6,206.3z"/>
		<path class="st15" d="M103.2,206.7c0-0.1-0.2-0.2-0.5-0.2c-0.3,0-0.5,0.1-0.5,0.2c0,0.1,0.2,0.2,0.5,0.2
			C103,207,103.2,206.9,103.2,206.7z"/>
		<path class="st18" d="M115.6,222.8c-0.6,0.8-2.7,1.3-3.3,1.3c-0.5-0.1,0.2-1.9,0.8-2.2C113.8,221.5,116.9,221,115.6,222.8z"/>
		<polygon class="st5" points="104.5,218 104.9,220.1 105.2,218.1 		"/>
		<polygon class="st5" points="111.3,217.2 112.2,218.4 111.9,217 		"/>
		<polygon class="st7" points="102,226.7 101.8,224.6 101.3,226.6 		"/>
		<polygon class="st7" points="93.3,224.2 93.4,222.7 92.8,224 		"/>
		<polygon class="st7" points="112.9,225.4 112,224.2 112.3,225.5 		"/>
		<polygon class="st7" points="119.2,221.6 118.6,219.7 118.7,221.7 		"/>
		<polygon class="st19" points="104.4,181.9 104.7,184 104.9,181.9 		"/>
		<polygon class="st19" points="97,183.7 97.3,185.8 97.5,183.8 		"/>
	</g>
	<path class="st4" d="M77.4,85.9C70.5,87.6,63,90.6,56,100c-4.8,6.5-5.3,19.3-5.3,19.3c7.1-21.3,17.9-24.7,28.3-26
		C88.6,92.1,86.1,83.8,77.4,85.9z"/>
	<path class="st4" d="M134.4,86.6c6.7,2,13.9,5.4,20.3,15.2c4.4,6.7,4.1,19.5,4.1,19.5c-5.7-21.6-16.2-25.5-26.4-27.4
		C123,92.2,125.9,84,134.4,86.6z"/>
	<g>
		<g>
			<path class="st21" d="M126.3,134.4c-1.1-0.3-4.8-2.4-4.7-2.9c2-3.5,7-11.6,7-11.6L126.3,134.4z"/>
			<path class="st4" d="M146.6,133.5c1.2-0.3,3.1-1.8,3.1-2.2c-0.3-2.4-4.4-8.7-4.4-8.7L146.6,133.5z"/>
			<path class="st4" d="M147.5,131.3c0-7.9-5.4-14.8-11.5-14.8c-6.1,0-11,6.4-11,14.3c0,7.9,4.9,14.3,11,14.3
				C142.1,145.1,147.5,139.2,147.5,131.3z"/>
			<path class="st12" d="M146.1,130.8c0-7.6-4.5-13.8-10.1-13.8c-5.6,0-10.1,6.2-10.1,13.8c0,7.6,4.5,12.5,10.1,12.5
				C141.6,143.3,146.1,138.4,146.1,130.8z"/>
			<path class="st22" d="M136.6,141.5c-5.6,0-10.1-5.2-10.1-12.9c0-1.2,0.1-2.4,0.3-3.6c-0.6,1.7-0.9,3.7-0.9,5.7
				c0,7.6,4.5,12.9,10.1,12.9c4.7,0,8.7-3.8,9.8-9.6C144.2,138.7,140.7,141.5,136.6,141.5z"/>
			<path class="st8" d="M141.8,131.2c0-4.3-2.7-7.8-6-7.8c-3.3,0-6,3.5-6,7.8c0,4.3,2.7,7.8,6,7.8
				C139.2,139,141.8,135.5,141.8,131.2z"/>
			<path class="st23" d="M149.6,131.2c-2.6-6.9-6.6-13.6-12.8-13.6c-5.6,0-12.6,5.4-13.6,11.9c5.6-10.1,16.9-14.5,24.7-0.7
				C148.4,129.7,149.1,130.2,149.6,131.2z"/>
			<path class="st2" d="M123.5,128.2c2.7-9.7,16.9-19.4,25.6,1.6c0,0-2.1-14-12.5-14C124.5,115.8,123.5,128.2,123.5,128.2z"/>
			<path class="st12" d="M132.7,133.8c-0.2-1.1-1-1.9-1.7-1.7c-0.7,0.1-1.1,1.1-0.9,2.2c0.2,1.1,1,1.9,1.7,1.7
				C132.5,135.9,132.9,134.9,132.7,133.8z"/>
			<path class="st12" d="M132.5,129.9c0.1-0.6,0-1.1-0.4-1.1c-0.3,0-0.7,0.5-0.8,1.1c-0.1,0.6,0,1.1,0.4,1.1
				C132,131,132.4,130.5,132.5,129.9z"/>
		</g>
		<path class="st1" d="M124.9,133.7c0,0,1.7,10.9,9.5,11.7c7.8,0.8,12.2-4.9,13.4-11.6c0,0-6.2,8-12.3,6.9
			C129.4,139.6,124.9,133.7,124.9,133.7z"/>
		<path class="st4" d="M118.8,132.1c6.3-1.6,8.7,9.6,16.3,9.5c9.7-0.2,12.9-9.7,17.3-9c0,0-1.1-1.3-2.7-1.2c-1.6,0.1-7.7,9.4-14.6,9
			C128.1,139.9,125.5,129.1,118.8,132.1z"/>
		<path class="st4" d="M136.6,116.9c-7.6-0.4-11.9,7.5-12.8,10c-0.9,2.5-2.9,4.3-4.7,5.1l2.8-0.2c0,0,1.5-1.2,2.5-3.9
			c3.1-8.4,9.9-9.2,11.7-9.1c10.9,0.7,12.7,13.4,12.7,13.4l2.2-0.6C148.4,131.3,146.6,117.4,136.6,116.9z"/>
		<path class="st4" d="M151.2,122.5c0,0-3.7,1.5-5.8,0.7l0.6,1C146,124.2,149.2,124.6,151.2,122.5z"/>
		<path class="st4" d="M149.9,120.4c0,0-3.1,2.3-5.4,2l0.9,0.8C145.3,123.2,148.5,122.9,149.9,120.4z"/>
		<path class="st4" d="M148.5,118.9c0,0-2.9,2.5-5.3,2.4l1,0.7C144.2,122,147.3,121.4,148.5,118.9z"/>
		<path class="st4" d="M146.5,117.3c0,0-2.7,2.7-5,2.8l1,0.7C142.5,120.7,145.5,119.9,146.5,117.3z"/>
		<path class="st4" d="M143.3,115.6c0,0-1.3,2.9-3,3.5l0.9,0.3C141.3,119.4,143.3,117.9,143.3,115.6z"/>
	</g>
	<g>
		<g>
			<path class="st21" d="M84.6,134.4c1.1-0.3,4.8-2.4,4.7-2.9c-2-3.5-7-11.6-7-11.6L84.6,134.4z"/>
			<path class="st4" d="M64.3,133.5c-1.2-0.3-3.1-1.8-3.1-2.2c0.3-2.4,4.4-8.7,4.4-8.7L64.3,133.5z"/>
			<path class="st4" d="M63.4,131.3c0-7.9,5.4-14.8,11.5-14.8c6.1,0,11,6.4,11,14.3c0,7.9-4.9,14.3-11,14.3
				C68.8,145.1,63.4,139.2,63.4,131.3z"/>
			<path class="st12" d="M64.8,130.8c0-7.6,4.5-13.8,10.1-13.8c5.6,0,10.1,6.2,10.1,13.8c0,7.6-4.5,12.5-10.1,12.5
				C69.3,143.3,64.8,138.4,64.8,130.8z"/>
			<path class="st22" d="M74.3,141.5c5.6,0,10.1-5.2,10.1-12.9c0-1.2-0.1-2.4-0.3-3.6c0.6,1.7,0.9,3.7,0.9,5.7
				c0,7.6-4.5,12.9-10.1,12.9c-4.7,0-8.7-3.8-9.8-9.6C66.6,138.7,70.2,141.5,74.3,141.5z"/>
			<path class="st8" d="M69,131.2c0-4.3,2.7-7.8,6-7.8c3.3,0,6,3.5,6,7.8c0,4.3-2.7,7.8-6,7.8C71.7,139,69,135.5,69,131.2z"/>
			<path class="st23" d="M61.2,131.2c2.6-6.9,6.6-13.6,12.8-13.6c5.6,0,12.6,5.4,13.6,11.9c-5.6-10.1-16.9-14.5-24.7-0.7
				C62.4,129.7,61.7,130.2,61.2,131.2z"/>
			<path class="st2" d="M87.3,128.2c-2.7-9.7-16.9-19.4-25.6,1.6c0,0,2.1-14,12.5-14C86.4,115.8,87.3,128.2,87.3,128.2z"/>
			<path class="st12" d="M68.8,133.6c0-1.1,0.6-2,1.3-2c0.7,0,1.3,0.9,1.3,2c0,1.1-0.6,2-1.3,2C69.4,135.6,68.8,134.7,68.8,133.6z"
				/>
			<path class="st12" d="M70.9,128.5c0.2-0.6,0.7-0.9,0.9-0.7c0.3,0.2,0.3,0.8,0.1,1.3c-0.2,0.6-0.7,0.9-0.9,0.7
				C70.7,129.7,70.7,129.1,70.9,128.5z"/>
		</g>
		<path class="st1" d="M86,133.7c0,0-1.7,10.9-9.5,11.7c-7.8,0.8-12.2-4.9-13.4-11.6c0,0,6.2,8,12.3,6.9
			C81.5,139.6,86,133.7,86,133.7z"/>
		<path class="st4" d="M92,132.1c-6.3-1.6-8.7,9.6-16.3,9.5c-9.7-0.2-12.9-9.7-17.3-9c0,0,1.1-1.3,2.7-1.2c1.6,0.1,7.7,9.4,14.6,9
			C82.7,139.9,85.3,129.1,92,132.1z"/>
		<path class="st4" d="M74.3,116.9c7.6-0.4,11.9,7.5,12.8,10c0.9,2.5,2.9,4.3,4.7,5.1l-2.8-0.2c0,0-1.5-1.2-2.5-3.9
			c-3.1-8.4-9.9-9.2-11.7-9.1c-10.8,0.7-12.7,13.4-12.7,13.4l-2.2-0.6C62.4,131.3,64.3,117.4,74.3,116.9z"/>
		<path class="st4" d="M59.7,122.5c0,0,3.7,1.5,5.8,0.7l-0.6,1C64.8,124.2,61.7,124.6,59.7,122.5z"/>
		<path class="st4" d="M61,120.4c0,0,3.1,2.3,5.4,2l-0.9,0.8C65.5,123.2,62.4,122.9,61,120.4z"/>
		<path class="st4" d="M62.4,118.9c0,0,2.9,2.5,5.3,2.4l-1,0.7C66.7,122,63.6,121.4,62.4,118.9z"/>
		<path class="st4" d="M64.4,117.3c0,0,2.7,2.7,5,2.8l-1,0.7C68.4,120.7,65.3,119.9,64.4,117.3z"/>
		<path class="st4" d="M67.5,115.6c0,0,1.3,2.9,3,3.5l-0.9,0.3C69.6,119.4,67.5,117.9,67.5,115.6z"/>
	</g>
	<path class="st3" d="M132.6,47.2c-23.7-19.8-41.3,27.9,8.6,33.6c0.2,0,0.3-0.1,0.4-0.2C106.3,69.6,120,47.9,132.6,47.2z"/>
</g>
<g>
</g>
<g>
</g>
<g>
</g>
<g>
</g>
<g>
</g>
</svg>
