<?xml version="1.0" encoding="utf-8"?>
<!-- Generator: Adobe Illustrator 24.0.2, SVG Export Plug-In . SVG Version: 6.00 Build 0)  -->
<svg version="1.1" id="Layer_1" xmlns="http://www.w3.org/2000/svg" xmlns:xlink="http://www.w3.org/1999/xlink" x="0px" y="0px"
	 viewBox="0 0 202.1 248.5" style="enable-background:new 0 0 202.1 248.5;" xml:space="preserve">
<style type="text/css">
	.st0{fill:#542D2A;}
	.st1{fill:#FFBB88;}
	.st2{fill:#FF9769;}
	.st3{fill:#663E39;}
	.st4{fill:#563C38;}
	.st5{fill:#D82525;}
	.st6{fill:#F74743;}
	.st7{fill:#E83434;}
	.st8{fill:#3F322D;}
	.st9{fill:#FFFEEE;}
	.st10{fill:#F2D5B1;}
	.st11{fill:#FFEFD9;}
	.st12{fill:#FF5252;}
	.st13{fill:#2D201E;}
	.st14{fill:#F45540;}
	.st15{fill:#F7E7D0;}
	.st16{opacity:0.5;fill:#E05555;}
</style>
<g>
	<g>
		<path class="st0" d="M188.3,71.3l-175.1,0C16,97.1-1.6,201.9,1.7,216.1c7.6,32.9,190.3,33.9,198.1,0
			C203.1,201.9,185.6,97.1,188.3,71.3z"/>
		<path class="st1" d="M158.8,187c24.5-1.5,44.2-34.7,31.9-50.9C168.4,106.4,129.6,188.7,158.8,187z"/>
		<path class="st2" d="M167.5,176.9c16.2-2.6,27-26.1,17.8-36C168.5,122.7,148.2,180,167.5,176.9z"/>
		<path class="st1" d="M44.8,191.7c-24.3-2-42.7-34-29.4-47.7C38,120.7,72.3,194,44.8,191.7z"/>
		<path class="st2" d="M41.3,185.3c-18.2-1.5-32-25.3-22-35.6C36.2,132.3,61.9,187,41.3,185.3z"/>
		<path class="st3" d="M189.3,38.4c-18.1-41.4-65-37.1-92.7-30.3c-22.6-7.8-57.9-11.4-79,28.7c-34.2,64.9,18.6,168.4,56.2,192.4
			l60.5-2.7C164.3,203.5,218.7,105.8,189.3,38.4z"/>
		<path class="st0" d="M190.2,40.7c-7,23.8-45.5,41.9-92,41.9c-39.3,0-72.9-13-86.6-31.4c-20.7,64.8,27.3,155.7,62.2,178l60.5-2.7
			C164,203.8,217.5,107.9,190.2,40.7z"/>
		<path class="st1" d="M172.8,155c0-75.1-17.8-94.6-67-94.6s-67,14.7-67,94.6c0,56.9,45,90.5,66.9,90.5
			C126.9,243.8,172.8,207.9,172.8,155z"/>
		<path class="st2" d="M113.7,167.6c-7.8-13.2-9.1-28.4-8.2-37.5c0,0-3.6,10.7,1.2,26.4c1.3,4.4,6.7,12.4,5.5,13.8
			c-1.6,2-4.4,3.6-7.7,3.6c-5.3,0-9.3-3.9-8.9-6.9c-2.1,3.4,1.6,9.2,8.6,9.2C111.5,176.4,116.1,171.7,113.7,167.6z"/>
		<path class="st2" d="M161.9,171.8c0.4-3.6-3.6-7.1-9.9-7.8c-7.9-0.8-15.8,3.1-15.5,8.6c0.3,5.1,7.7,8,14.9,6.9
			C157.3,178.6,161.5,175.3,161.9,171.8z"/>
		<path class="st2" d="M45.8,169c0.4-3.6,4.7-6.3,10.6-5.7c7.5,0.7,14,6.1,12.7,11.4c-1.2,5-8.6,6.4-15.1,3.9
			C48.7,176.6,45.4,172.5,45.8,169z"/>
		<path class="st2" d="M111.3,227c0-0.5-2.7-0.9-5.9-0.9c-3.3,0-5.9,0.4-5.9,0.9c0,0.5,2.7,0.9,5.9,0.9
			C108.7,227.9,111.3,227.5,111.3,227z"/>
		<path class="st4" d="M142.7,212.5c0-0.6-0.5-1-1.2-1c-0.6,0-1.2,0.5-1.2,1c0,0.6,0.5,1,1.2,1C142.2,213.6,142.7,213.1,142.7,212.5
			z"/>
		<g>
			<path class="st5" d="M128.6,204.9c-4.5-2.3-45-4-47.6-2.7c-4.7,2.4-6.7,9.4-4.3,8.8c5.4-1.3,14.8,6.6,24.2,6.5
				c10.4-0.2,21.9-6.3,31.7-6.2C134.6,211.4,134.9,208.1,128.6,204.9z"/>
			<path class="st6" d="M103.3,185.8c2.5-0.2,7.2-3.1,9-2.6c1.8,0.4,18.8,10.9,22.4,23.1c0,0,0.9,5.7-2.2,4.4
				c-3.1-1.3-28-14.8-32.4-13.5c-4.4,1.2-23,14.6-24.3,13.6c-2.5-2,11-25.6,19-27.1C98.3,183,100.1,186.1,103.3,185.8z"/>
			<path class="st7" d="M134.7,206.3c-2.3-7.7-9.9-14.7-15.7-19c1.2,7.6-17.7,3.6-15.2-1.6c-0.2,0-0.4,0.1-0.6,0.1
				c-0.9,0.1-1.7-0.1-2.4-0.4c0.6,2.5-3,5.2-6.1,5.9c-4,0.8-7.6,0.3-7.5-2c-6.7,7.5-13.1,20-11.4,21.4c1.3,1,19.8-12.3,24.3-13.6
				c4.4-1.2,29.3,12.2,32.4,13.5C135.6,212,134.7,206.3,134.7,206.3z"/>
			<path class="st6" d="M77.8,210.6c5.4-1.2,17.2,6.2,23.2,5.7c7-0.5,22.6-6.1,30.4-5.4c1.9,0.2,4.7-1-1.6-4
				c-6.3-3-20.6-8.8-28.4-7.2c-4.4,0.9-13.7,3.5-19.7,6.4C77,208.4,75.4,211.2,77.8,210.6z"/>
			<path class="st7" d="M130.6,206.5c-4.5-2.1-17.4-7.3-24.9-4.5c8.6,2.8,17,6.3,17,8c-0.1,1.4-14.3,4.4-21.7,4.6
				c-7.4,0.1-16.5-3.6-16.5-4.9c0.1-2.2,8.1-5.4,13-7.1c-4.5-1.6-13.9,2.1-16.5,3.3c-4.7,2.3-6.5,5.8-4.1,5.2
				c5.4-1.2,18,6.3,24.1,5.8c7-0.5,23.5-6.2,31.2-5.5C134.2,211.5,136.9,209.5,130.6,206.5z"/>
			<path class="st5" d="M80.6,208.3c1.9-0.1,16.3-7.2,23.3-6.5c7,0.6,23.5,8.3,25.1,8.2c0.8,0,4.2,0,4.5-0.2
				c0.3-0.3,0.7-2.9,0.7-3.3c0-0.4-5-12.8-15.7-14.8c-1.2-0.2-10.2,2-15.7,1.6c-5.5-0.3-8.9-1.2-10.6-0.7
				c-1.7,0.4-11.2,4.1-14.4,14.4C77.5,208.1,80.6,208.3,80.6,208.3z"/>
			<path class="st8" d="M80.9,207.8c1.9-0.1,16-6.6,23-6.1c7,0.6,23.5,7.7,25.1,7.7c0.8,0,2.7,0.1,3-0.2c0.3-0.2,1.6-2.7,1.7-3
				c0-0.4-4.6-12-15.3-13.8c-1.2-0.2-10.1,2.7-15.6,2.4c-5.5-0.3-8.8-1.7-10.5-1.3c-1.7,0.4-10.2,2.8-13.4,12.4
				C78.6,206.9,80.9,207.8,80.9,207.8z"/>
			<path class="st9" d="M128.3,208.6c1.4-0.4,1-8.6-0.2-10.1c-1.2-1.5-7.4-4.4-8.9-4.9c-1.5-0.5-11.9,1.8-16.4,1.9
				c-4.7,0.1-9.7-1.5-11.4-1c-1.9,0.6-6.2,3.1-6.8,3.8c-0.6,0.7-1.7,8-1.3,8.1c0.4,0.1,12-6.6,22.5-5
				C115.9,203,127.4,208.9,128.3,208.6z"/>
			<path class="st10" d="M82.9,204.8c1.5-2,5.2-4.5,10.5-5.6c0,0-8.9,2-9,0.7C84.3,200,82.3,203.8,82.9,204.8z"/>
			<path class="st11" d="M129.2,206.5c-1.5-2-9.9-6.1-15.3-7c0,0,14.7,2.5,15,1.2C128.9,200.7,129.9,205.5,129.2,206.5z"/>
			<path class="st11" d="M129.2,202.9c0,2.4-0.3,4.6-1,4.9c-1,0.3-12.7-5.6-22.8-7.1c-10.2-1.5-21.3,5.1-21.7,4.9
				c-0.3-0.1,0.3-4.8,0.8-7c-0.6,1.5-1.6,7.8-1.2,7.9c0.4,0.1,12-6.4,22.5-4.7c10,1.6,21.5,7.2,22.5,6.9
				C129.1,208.3,129.3,205.5,129.2,202.9z"/>
			<path class="st10" d="M85.5,200.4c-1.6-1.7,3.9-3.3,5.8-3.9c1.7-0.5,6.7,1.1,11.5,1c4.5-0.1,15-2.4,16.5-1.9
				c1.5,0.5,11.4,3.5,8,5.4c-0.6,0.3,1.7,1.3,1.9,2.8c-0.1-2.2-0.5-4.6-1-5.3c-1.2-1.5-7.4-4.4-8.9-4.9c-1.5-0.5-11.9,1.8-16.4,1.9
				c-4.7,0.1-9.7-1.5-11.4-1c-1.9,0.6-6.2,3.1-6.8,3.8c-0.5,0.6-1.4,5.9-1.4,7.6C83.5,203.7,85.9,200.8,85.5,200.4z"/>
			<path class="st8" d="M83.3,206.7c-0.1-1.2,0.6-4,2.7-5c1.1-0.5,0.3-1.1-0.6-0.9c-0.9,0.3-1.1-1.7-0.8-2.7c0,0-2.6,2.1-3,4.9
				C81.2,205.8,83.3,206.7,83.3,206.7z"/>
			<path class="st8" d="M128.4,208.7c1.4-1.3,1.1-5.7-2.8-6.3c-3.9-0.6-4.7-1.4-4.7-1.4s3.8,1.1,5,0.7c1.2-0.3,3.3,1.8,3.3-1.1
				c0,0,1.7,2,1.5,4.7C130.5,208.4,128.4,208.7,128.4,208.7z"/>
			<path class="st10" d="M113.2,199.4c-0.9,0.1-3.9-0.3-5.3-0.5c0,0,1.7,0,3.3,0.1C112.4,199.1,113.7,199.4,113.2,199.4z"/>
			<path class="st12" d="M106.6,202.6c-6.2-2.1-15.6,2.7-17.1,4.3c-1.5,1.6,5.4,3,11,2.2C106.4,208.2,112.8,204.7,106.6,202.6z"/>
			<path class="st13" d="M129.5,202.9c2.3,0.4,3.3,2.4,3.4,3.1c0.1,0.7-0.9,2.5-1.4,2.6c-0.5,0.1-1.7-0.2-1.7-0.2
				C129.1,208.3,131,205.4,129.5,202.9z"/>
			<path class="st13" d="M82.6,206.6c0-1.5,0.7-4.7,2.6-5.3c0,0-1.8-0.5-1.7-1.6c0,0-2.4,0.9-3.7,5.9c-0.2,0.7,1.1,1.3,1.4,1.4
				C81.7,207.3,82.6,206.6,82.6,206.6z"/>
			<path class="st12" d="M111.3,205c0.5-0.1,2.7,1,2.3,1.7c-0.4,0.7-3.5,0.5-3.9-0.1C109.3,206,110.7,205.1,111.3,205z"/>
			<path class="st7" d="M98.5,214.5c1.7,0.1,2.3-0.8,2.7-2.9c0,0-0.3,2.1,1.3,3.1l-2.3,0.9L98.5,214.5z"/>
			<path class="st5" d="M102.2,193.6c1.7,0,1.9-1,1.4-3.3c0,0,0.6,2.2,2.5,3.2l-1.9,1.1L102.2,193.6z"/>
			<path class="st7" d="M105.3,214.2c0.9,0,1.2-0.5,1.3-1.7c0,0,0,1.1,0.8,1.6l-1.2,0.6L105.3,214.2z"/>
			<path class="st7" d="M90.2,212.8c0.9,0.3,1.3,0,1.8-1.1c0,0-0.5,1.1,0.2,1.8l-1.3,0.1L90.2,212.8z"/>
			<path class="st12" d="M111.5,183.4c-1.8,0.4-4,1.6-2.5,2.4c1.5,0.8,7.9,1.8,7.7,1.1C116.1,185.1,112.5,183.2,111.5,183.4z"/>
			<path class="st12" d="M95.6,183.8c-3,0.1-4.6,3.7-4.6,4.6c0,0.8,6.5-1,7.6-2.5C99.4,184.8,97.4,183.7,95.6,183.8z"/>
			<path class="st5" d="M100.6,191c-0.4,1.1-1.4,2.1-2,2.4l1.2,0.1C100.6,192.1,100.6,191,100.6,191z"/>
			<path class="st5" d="M101.6,191.9c-0.2,0.7-0.7,1.4-1,1.6l0.7,0C101.7,192.6,101.6,191.9,101.6,191.9z"/>
			<polygon class="st11" points="94.2,202 94.4,200.1 95.1,201.7 			"/>
			<polygon class="st10" points="91.8,195.8 92,197.7 91,196.3 			"/>
			<polygon class="st10" points="118.6,194.4 118.7,197.2 119.2,194.7 			"/>
		</g>
		<g>
			<path class="st4" d="M152.2,130.8c1.3-1,2.8-3.5,2.7-4.1c-0.1-0.6-6.6-3.1-6.6-3.1L152.2,130.8z"/>
			<path class="st14" d="M126.9,144.1c-1.7,0.3-4.6-0.3-4.9-0.7c-0.3-0.5,1.6-6.7,1.6-6.7L126.9,144.1z"/>
			<path class="st4" d="M124.5,137c-0.2-8.9,6.1-17.9,14.1-18.2c7.2-0.3,14.9,19.7,20,24.3c0,0.2-7.5,1.3-19.2,8.1
				C131.4,151.5,124.7,146,124.5,137z"/>
			<path class="st9" d="M125.8,135.5c-0.2-8.6,5.5-15.9,12.9-16.2c7.3-0.3,13.4,6.4,13.6,15.1c0.2,8.6-5.6,14.4-12.9,14.7
				C132.1,149.4,126,144.2,125.8,135.5z"/>
			<path class="st15" d="M138.6,147.1c7.3-0.3,13.1-6.5,12.9-15.1c0-1.4-0.2-2.7-0.5-4c0.8,1.9,1.3,4.1,1.3,6.4
				c0.2,8.6-5.6,14.8-12.9,15.1c-6.2,0.3-11.5-3.8-13.1-10.3C128.4,144.3,133.2,147.4,138.6,147.1z"/>
			<path class="st8" d="M130.5,135.1c-0.3-5.1,3.4-9.5,8.1-9.8c4.7-0.3,8.7,3.6,9,8.7c0.3,5.1-3.4,9.5-8.1,9.8
				C134.8,144,130.8,140.1,130.5,135.1z"/>
			<path class="st9" d="M142.5,138.3c0.7-1.3,2-2,3-1.5c1,0.5,1.3,2,0.6,3.3c-0.7,1.3-2,2-3,1.5C142,141.1,141.8,139.6,142.5,138.3z
				"/>
			<path class="st16" d="M121.9,143.3c0.1-9,5.1-18.3,12.9-21.8c7-3.1,15.5-1.2,19.7,5.2c-8.2,0.6-20.7,11.3-28.2,17.3
				C124.5,144.2,122.6,144,121.9,143.3z"/>
			<path class="st9" d="M144.9,135.6c-0.7-0.2-1.2-1-1.2-1.8c0-0.8,0.7-1.2,1.4-1c0.7,0.2,1.2,1,1.2,1.8
				C146.2,135.4,145.6,135.9,144.9,135.6z"/>
			<path class="st2" d="M153.5,125.5c-3-3-24.2-3.6-31.9,16.3c0,0,3.3-20.5,16.4-26.3C153.2,108.8,153.5,125.5,153.5,125.5z"/>
			<path class="st2" d="M153,123.8c1.2,1.7,1.8,2.8,1.8,2.8c-3.1-3.2-20.3,7-32.9,16.6c0,0-0.3-1-0.6-2.7
				C129.1,122.9,146.8,121.7,153,123.8z"/>
			<path class="st1" d="M122,143l29.7,1.9c0,0-5.9,9.7-16.9,6.9C123.8,149,122,143,122,143z"/>
			<g>
				<path class="st4" d="M154.9,126.6c0,0,0.7,14.4,5.5,17c0,0-9.6-1.7-9.5-14.1L154.9,126.6z"/>
				<path class="st4" d="M118.3,143.8c1,0.2,3.2,0.4,5.9-1.7c2.7-2.1,27.7-18.4,30.5-15.4c0,0-0.3-2.2-1.8-2.8c0,0-4.6-1.8-15,5.7
					C127.6,137,124.6,142.5,118.3,143.8z"/>
				<path class="st4" d="M119.7,143.9c3.9-2,13.3-1.9,22-0.2c8.7,1.6,13.1,0.3,16.4-0.7l4.4,1.3c0,0-4.5,0.2-7.5,1.1
					c-3,0.9-9.8,1.4-13.3,0.5C127.8,142.7,119.7,143.9,119.7,143.9z"/>
				<path class="st4" d="M157.8,120.3c0,0-2.1,4.7-4.9,5.6l1.5,0.5C154.4,126.4,157.8,124.2,157.8,120.3z"/>
				<path class="st4" d="M154.5,119.3c0,0-0.8,5.1-3.3,6.7l1.6,0.1C152.8,126,155.5,123,154.5,119.3z"/>
				<path class="st4" d="M151.8,118.9c0,0-0.4,5.1-2.8,6.9l1.6-0.1C150.6,125.8,153,122.5,151.8,118.9z"/>
				<path class="st4" d="M148.4,119c0,0,0,5.1-2.2,7.1l1.6-0.2C147.8,125.9,150,122.5,148.4,119z"/>
			</g>
			<path class="st2" d="M123.1,144.7c1.7,2.5,10.4,7.7,17.8,5.8l-3.1,3.8C130.9,154,126.4,149.4,123.1,144.7z"/>
		</g>
		<g>
			<g>
				<path class="st4" d="M56.4,127c0,0,0.3,14.5-4.3,17.4c0,0,9.5-2.3,8.5-14.7L56.4,127z"/>
				<path class="st4" d="M59.4,131c-1.3-0.9-3-3.3-2.9-3.9c0.1-0.6,6.4-3.5,6.4-3.5L59.4,131z"/>
				<path class="st14" d="M85.6,142.5c1.7,0.2,4.6-0.6,4.9-1.1c0.3-0.5-2.1-6.6-2.1-6.6L85.6,142.5z"/>
				<path class="st4" d="M88,134.4c-0.4-8.9-11.4-15.4-19.4-15.2c-7.2,0.2-10,19.5-14.8,24.4c0,0.2,7.6,0.8,19.7,6.8
					C81.5,150.2,88.3,143.4,88,134.4z"/>
				<path class="st9" d="M86.1,133.9c-0.4-8.6-6.6-15.5-13.9-15.3c-7.3,0.2-13,7.3-12.6,16c0.4,8.6,6.5,14,13.9,13.8
					C80.7,148.2,86.4,142.6,86.1,133.9z"/>
				<path class="st15" d="M74.1,146.4c-7.3,0.2-13.5-5.6-13.9-14.2c-0.1-1.4,0-2.7,0.3-4c-0.7,2-1,4.2-0.9,6.5
					c0.4,8.6,6.6,14.4,13.9,14.2c6.2-0.2,11.3-4.6,12.4-11.2C84,142.9,79.5,146.2,74.1,146.4z"/>
				<path class="st8" d="M81.3,133.8c-0.1-5.1-4-9.2-8.7-9.2c-4.7,0-8.5,4.2-8.4,9.3c0.1,5.1,4,9.2,8.7,9.2
					C77.7,143,81.4,138.9,81.3,133.8z"/>
				<path class="st16" d="M90.4,141.4c-0.7-9-9.5-18.9-17.5-21.8c-7.2-2.6-12.4,0.7-16.1,7.5c8.2,0,21.5,9.9,29.3,15.4
					C88,142.5,89.8,142.2,90.4,141.4z"/>
				<path class="st9" d="M68.8,136.4c-0.2-1.8-1.4-3.1-2.8-3c-1.3,0.1-2.3,1.7-2.1,3.4c0.2,1.8,1.4,3.1,2.8,3
					C68.1,139.7,69,138.1,68.8,136.4z"/>
				<path class="st9" d="M70.5,141.2c0.7-0.3,1.2-1.1,1.1-1.9c-0.1-0.8-0.7-1.2-1.4-0.9c-0.7,0.3-1.2,1.1-1.1,1.9
					C69.2,141.1,69.8,141.5,70.5,141.2z"/>
				<path class="st2" d="M57.7,125.8c2.8-3.2,23.9-5.2,33,14.1c0,0-3.9-19.1-17.4-23.9C57.6,110.3,57.7,125.8,57.7,125.8z"/>
				<path class="st2" d="M58.1,124.1c-1,1.7-1.6,2.9-1.6,2.9c2.9-3.4,20.8,5.6,33.9,14.4c0,0,0.2-1.1,0.5-2.8
					C81.9,121.6,64.2,121.5,58.1,124.1z"/>
				<path class="st1" d="M90.4,141.1L60.8,145c0,0,6.5,9.3,17.3,5.7C89,147.2,90.4,141.1,90.4,141.1z"/>
				<path class="st4" d="M94.1,141.6c-1,0.3-3.2,0.6-6-1.3c-2.8-1.9-28.8-16.5-31.5-13.3c0,0,0.1-2.3,1.6-2.9c0,0,4.5-2.1,15.4,4.6
					C84.4,135.5,87.7,140.8,94.1,141.6z"/>
				<path class="st4" d="M92.7,141.8c-4.1-1.8-13.4-1-22,1.2c-8.6,2.2-13,1.2-16.5,0.4l-4.3,1.6c0,0,4.5-0.1,7.6,0.6
					c3,0.7,9.9,0.7,13.4-0.4C84.5,141.2,92.7,141.8,92.7,141.8z"/>
				<path class="st4" d="M53.1,120.9c0,0,2.4,4.5,5.3,5.3l-1.5,0.6C56.9,126.8,53.4,124.8,53.1,120.9z"/>
				<path class="st4" d="M56.3,119.6c0,0,1.2,5,3.8,6.4l-1.6,0.2C58.5,126.3,55.6,123.4,56.3,119.6z"/>
				<path class="st4" d="M59,119.1c0,0,0.8,5.1,3.3,6.7l-1.6,0.1C60.7,125.9,58,122.8,59,119.1z"/>
				<path class="st4" d="M62.4,118.9c0,0,0.4,5.1,2.7,7l-1.6-0.1C63.5,125.8,61.1,122.5,62.4,118.9z"/>
			</g>
			<path class="st2" d="M89.1,144.1c-1.6,2.5-10.3,7.8-17.8,6l3.1,3.8C81.3,153.4,85.9,148.8,89.1,144.1z"/>
		</g>
		<path class="st3" d="M113.4,127.1c18.7,5.6,16-33.5,48.4-15.8c0,0-7.7-6.7-14.1-7.5c-21.1-2.4-22.5,20.2-36.2,16.4
			C111.6,121.6,113.4,127.1,113.4,127.1z"/>
		<path class="st3" d="M96.5,124.7c-18.7,6.6-20.2-32.5-51.7-13.2c0,0,7.2-7.1,13.7-8.2c21.6-3.5,25.4,18.9,39.1,14.4
			C97.7,119.1,96.5,124.7,96.5,124.7z"/>
	</g>
	<path class="st3" d="M121.7,60.4c-24.8-20.3-43.3,28.5,9,34.4c0.2,0,0.3-0.1,0.5-0.2C94.1,83.4,108.5,61.2,121.7,60.4z"/>
</g>
<g>
</g>
<g>
</g>
<g>
</g>
<g>
</g>
<g>
</g>
</svg>
