<?xml version="1.0" encoding="utf-8"?>
<!-- Generator: Adobe Illustrator 24.0.2, SVG Export Plug-In . SVG Version: 6.00 Build 0)  -->
<svg version="1.1" id="Layer_1" xmlns="http://www.w3.org/2000/svg" xmlns:xlink="http://www.w3.org/1999/xlink" x="0px" y="0px"
	 viewBox="0 0 408.9 330.1" style="enable-background:new 0 0 408.9 330.1;" xml:space="preserve">
<style type="text/css">
	.st0{fill:#EA0A0A;}
	.st1{fill:none;stroke:#C10D08;stroke-width:10.416;stroke-miterlimit:10;}
	.st2{fill:#FFFFFF;}
</style>
<g>
	<polygon class="st0" points="405.6,164.1 302.1,168.9 357.3,257.9 275.9,189.6 282.1,295.6 230.2,202.6 205,306 179.7,202.6 
		127.9,295.6 134,189.6 52.6,257.9 107.8,168.9 4.3,164.1 107.8,159.4 52.6,70.4 134,138.7 127.9,32.6 179.7,125.7 205,22.2 
		230.2,125.7 282.1,32.6 275.9,138.7 357.3,70.4 302.1,159.4 	"/>
	<polygon class="st1" points="405.6,164.1 302.1,168.9 357.3,257.9 275.9,189.6 282.1,295.6 230.2,202.6 205,306 179.7,202.6 
		127.9,295.6 134,189.6 52.6,257.9 107.8,168.9 4.3,164.1 107.8,159.4 52.6,70.4 134,138.7 127.9,32.6 179.7,125.7 205,22.2 
		230.2,125.7 282.1,32.6 275.9,138.7 357.3,70.4 302.1,159.4 	"/>
</g>
<g>
	<path class="st2" d="M123.8,179.2c-1,2.1-2.3,3.9-4,5.4c-1.7,1.5-3.6,2.7-5.9,3.5c-2.3,0.8-4.7,1.2-7.3,1.2c-1.8,0-3.7-0.5-5.5-1.5
		c-1.8-1-3.6-2.5-5.3-4.7l5.1-9.9c0.3,0.6,0.8,1.2,1.4,1.8c0.6,0.6,1.4,1.2,2.2,1.6c0.8,0.5,1.6,0.8,2.4,1.1
		c0.8,0.3,1.5,0.4,2.2,0.4c0.5,0,1.1-0.1,1.7-0.3c0.6-0.2,1.1-0.5,1.6-0.8c0.5-0.4,0.9-0.8,1.2-1.3c0.3-0.5,0.4-1,0.4-1.7
		c0-1.1-0.4-2.1-1.1-3c-0.7-0.9-1.6-1.8-2.6-2.7c-1.1-0.8-2.2-1.7-3.4-2.6c-1.2-0.9-2.4-1.8-3.4-2.7s-1.9-2-2.6-3.2
		c-0.7-1.2-1.1-2.5-1.1-4c0-2.4,0.7-4.6,2.1-6.6c1.4-2.1,3.2-3.8,5.3-5.3c2.1-1.5,4.4-2.7,7-3.5c2.5-0.9,4.9-1.3,7.1-1.3
		c1.2,0,2.4,0.1,3.5,0.4c1.1,0.3,2,0.8,2.8,1.4c0.8,0.7,1.4,1.5,1.9,2.5c0.5,1,0.7,2.3,0.7,3.8c0,0.6-0.1,1.3-0.2,1.9
		c-0.1,0.6-0.2,1.3-0.3,2.1l-9.9,2.9c0.1-0.4,0.2-0.7,0.2-1.1c0.1-0.4,0.1-0.7,0.1-1.1c0-1.4-0.2-2.4-0.7-3
		c-0.5-0.6-1.1-0.9-1.9-0.9c-0.4,0-0.8,0.1-1.3,0.4c-0.5,0.3-1.1,0.6-1.6,1.1c-0.5,0.4-1,0.9-1.3,1.5c-0.4,0.6-0.5,1.2-0.5,1.9
		c0,1.1,0.3,2,0.9,2.7c0.6,0.7,1.4,1.4,2.3,2.1c0.9,0.6,1.9,1.3,3,2c1.1,0.7,2.1,1.5,3,2.6c0.9,1.1,1.7,2.4,2.3,3.9
		c0.6,1.6,0.9,3.6,0.9,6C125.3,174.8,124.8,177.1,123.8,179.2z"/>
	<path class="st2" d="M138.8,187.1c-1.6,0.1-3.2,0.2-4.8,0.4c-1.6,0.2-3.2,0.4-4.7,0.7c-1.5,0.3-2.9,0.7-4.1,1.1
		c0.3-2.1,0.6-4.3,1-6.9c0.4-2.5,0.8-5.1,1.3-7.8c0.5-2.7,1-5.4,1.4-8.2c0.5-2.7,1-5.4,1.5-7.9c1.1-6,2.4-12.1,3.6-18.3l12-1.6
		c-1.2,5.3-2.4,10.5-3.6,15.5c-0.5,2.1-1,4.4-1.5,6.7c-0.5,2.3-1,4.6-1.4,6.8c-0.5,2.2-0.9,4.3-1.2,6.4c-0.4,2.1-0.7,3.9-0.9,5.5
		c1.1-0.1,2.4-0.1,3.7-0.2c1.3,0,2.5,0,3.5,0c0,0.9,0.1,1.7,0.2,2.6c0.1,0.8,0.2,1.6,0.3,2.3c0.1,0.7,0.2,1.3,0.3,1.8
		s0.1,0.9,0.2,1.1c-0.4,0-0.7,0-1.1,0c-0.3,0-0.7,0-1.1,0C141.9,187,140.4,187,138.8,187.1z"/>
	<path class="st2" d="M166.5,188.4c-1.4,0.2-2.6,0.4-3.7,0.6c0.2-1.5,0.4-3,0.5-4.5c0.1-1.3,0.3-2.6,0.4-3.8
		c0.1-1.3,0.2-2.4,0.3-3.3h-6l-2.7,9.9c-1,0.1-2.2,0.3-3.6,0.4c-1.4,0.2-2.7,0.3-3.8,0.4c-1.5,0.2-2.9,0.4-4.3,0.5
		c1.8-6.1,3.6-12.1,5.4-18c0.7-2.5,1.5-5,2.3-7.7c0.8-2.7,1.6-5.4,2.4-8.1c0.8-2.7,1.6-5.2,2.3-7.7c0.7-2.5,1.4-4.7,1.9-6.8
		c3.1-0.2,6.3-0.5,9.5-0.8c3.2-0.3,6.4-0.8,9.4-1.3c-0.1,1.5-0.3,3.3-0.4,5.4c-0.2,2.2-0.3,4.5-0.4,7.1c-0.1,2.6-0.3,5.2-0.4,8
		c-0.1,2.8-0.3,5.5-0.4,8.2c-0.2,6.3-0.5,13-0.8,20.1c-1.4,0.2-2.7,0.4-4.1,0.5C169.2,188,167.9,188.2,166.5,188.4z M159.7,170.6
		c0.2,0,0.5,0,1,0c0.5,0,1,0,1.5-0.1c0.5,0,1,0,1.5-0.1c0.5,0,0.8-0.1,1-0.1c0-0.3,0-0.7,0.1-1.4c0.1-0.7,0.1-1.4,0.2-2.3
		c0.1-0.8,0.1-1.8,0.2-2.8c0.1-1,0.2-2,0.3-2.9c0.2-2.3,0.4-4.8,0.7-7.5l0.4-6l-1,0.1l-1.6,5.9L159.7,170.6z"/>
	<path class="st2" d="M174.6,189.3c1.4-6.2,2.7-12.2,3.9-18.1c0.5-2.5,1-5.1,1.6-7.8s1.1-5.4,1.6-8.1c0.5-2.6,1-5.2,1.4-7.7
		c0.5-2.5,0.8-4.7,1.2-6.8c1.3-0.4,2.6-0.8,3.9-1.1c1.3-0.3,2.6-0.6,3.9-0.8c1.3-0.2,2.6-0.3,3.8-0.3c2.1,0,3.8,0.3,5.2,1
		c1.4,0.7,2.5,1.6,3.4,2.8c0.9,1.2,1.5,2.5,1.9,4.1c0.4,1.6,0.5,3.2,0.5,5c0,2.6-0.5,5-1.4,7.4c-0.9,2.4-2.2,4.5-3.8,6.3
		s-3.4,3.3-5.4,4.4c-2,1.1-4.1,1.6-6.3,1.6h-0.8c-0.4,1.6-0.7,3.2-1,5.1c-0.3,1.8-0.6,3.5-0.8,5.1c-0.3,1.8-0.6,3.7-0.9,5.5
		L174.6,189.3z M192.2,155.5c-0.5,2.7-1.1,5.6-1.6,8.6c0.7-0.2,1.5-0.6,2.3-1.3c0.8-0.7,1.5-1.5,2.2-2.6c0.7-1.1,1.2-2.3,1.6-3.7
		c0.4-1.4,0.6-2.9,0.6-4.5c0-1.7-0.4-3-1.1-3.8c-0.8-0.9-1.6-1.3-2.5-1.3C193.2,149.9,192.7,152.8,192.2,155.5z"/>
	<path class="st2" d="M229.6,179.2c-1,2.1-2.3,3.9-4,5.4s-3.6,2.7-5.9,3.5s-4.7,1.2-7.3,1.2c-1.8,0-3.7-0.5-5.5-1.5
		c-1.8-1-3.6-2.5-5.3-4.7l5.1-9.9c0.3,0.6,0.8,1.2,1.4,1.8c0.6,0.6,1.4,1.2,2.2,1.6c0.8,0.5,1.6,0.8,2.4,1.1
		c0.8,0.3,1.5,0.4,2.2,0.4c0.5,0,1.1-0.1,1.7-0.3s1.1-0.5,1.6-0.8c0.5-0.4,0.9-0.8,1.2-1.3c0.3-0.5,0.4-1,0.4-1.7
		c0-1.1-0.4-2.1-1.1-3c-0.7-0.9-1.6-1.8-2.6-2.7c-1.1-0.8-2.2-1.7-3.4-2.6c-1.2-0.9-2.4-1.8-3.4-2.7s-1.9-2-2.6-3.2
		c-0.7-1.2-1.1-2.5-1.1-4c0-2.4,0.7-4.6,2.1-6.6c1.4-2.1,3.2-3.8,5.3-5.3c2.1-1.5,4.4-2.7,7-3.5c2.5-0.9,4.9-1.3,7.1-1.3
		c1.2,0,2.4,0.1,3.5,0.4c1.1,0.3,2,0.8,2.8,1.4c0.8,0.7,1.4,1.5,1.9,2.5c0.5,1,0.7,2.3,0.7,3.8c0,0.6-0.1,1.3-0.2,1.9
		c-0.1,0.6-0.2,1.3-0.3,2.1l-9.9,2.9c0.1-0.4,0.2-0.7,0.2-1.1c0.1-0.4,0.1-0.7,0.1-1.1c0-1.4-0.2-2.4-0.7-3
		c-0.5-0.6-1.1-0.9-1.9-0.9c-0.4,0-0.8,0.1-1.3,0.4c-0.5,0.3-1.1,0.6-1.6,1.1c-0.5,0.4-1,0.9-1.3,1.5c-0.4,0.6-0.5,1.2-0.5,1.9
		c0,1.1,0.3,2,0.9,2.7c0.6,0.7,1.4,1.4,2.3,2.1c0.9,0.6,1.9,1.3,3,2c1.1,0.7,2.1,1.5,3,2.6c0.9,1.1,1.7,2.4,2.3,3.9
		c0.6,1.6,0.9,3.6,0.9,6C231.1,174.8,230.6,177.1,229.6,179.2z"/>
	<path class="st2" d="M236.4,189.3c1.1-5,2.1-10,3-14.9c0.4-2.1,0.8-4.2,1.2-6.4c0.4-2.2,0.8-4.4,1.2-6.6c0.4-2.2,0.7-4.3,1-6.3
		c0.3-2,0.6-3.9,0.8-5.6c-1.1-0.1-2.1-0.2-3.2-0.1c-1.1,0-2.1-0.1-3.2-0.4c0-0.7,0.1-1.6,0.1-2.5s0-1.9,0.1-2.9
		c0-1.1,0.1-2.2,0.1-3.4c1.2,0.1,2.4,0.2,3.6,0.2c1.2,0,2.4,0.1,3.6,0.1c2.3,0,4.6-0.1,6.8-0.2c2.2-0.1,4.2-0.3,6-0.4
		c1.8-0.2,3.7-0.4,5.4-0.6l-0.8,3.7c-0.2,1.1-0.4,2.1-0.7,3.2c-0.2,1.1-0.4,2-0.6,2.8c-1,0.3-2,0.5-3,0.6c-1,0.1-2,0.3-3,0.4
		c-0.3,1.6-0.7,3.3-1,5.2c-0.4,1.9-0.7,3.9-1.1,5.9c-0.3,2-0.7,4.1-1,6.2c-0.3,2.1-0.6,4.1-1,6c-0.7,4.5-1.4,9.2-2.1,14L236.4,189.3
		z"/>
	<path class="st2" d="M255.6,189.3l9-48.7l21.7-1.9c-0.3,1-0.6,2-0.8,3.1c-0.2,0.9-0.4,1.8-0.7,2.7c-0.2,0.9-0.4,1.8-0.5,2.5
		c-0.5,0-1.1,0.1-2,0.1c-0.8,0-1.7,0-2.7,0.1c-1,0-1.9,0-2.9,0c-1,0-1.8,0-2.6,0l-2.4,12.3c1.4-0.1,2.7-0.2,4-0.2c1,0,2-0.1,3.1-0.1
		s1.8,0,2.3-0.1c-0.2,1.3-0.4,2.5-0.5,3.8c-0.2,1.2-0.4,2.5-0.6,3.8c-0.5,0-1.2,0.1-2.2,0.1c-1,0-2.1,0.1-3.1,0.1
		c-1.2,0-2.5,0.1-3.9,0.1l-2.3,12.6l10-1.6l-0.7,7.8L255.6,189.3z"/>
	<path class="st2" d="M278.7,189.3c1.2-6.1,2.4-12,3.6-17.8c0.4-2.5,0.9-5,1.4-7.7s1-5.3,1.4-7.9c0.4-2.6,0.8-5.2,1.2-7.6
		c0.4-2.4,0.7-4.7,0.9-6.7c2.6-0.8,5.4-1.4,8.4-1.8c3-0.4,6-0.6,9-0.6c1.8,0,3.3,0.2,4.4,0.6s2.1,1,2.7,1.7s1.1,1.6,1.4,2.6
		c0.3,1,0.4,2.1,0.4,3.4c0,1.8-0.3,3.6-1,5.4c-0.6,1.8-1.5,3.4-2.6,5c-1.1,1.6-2.3,3-3.7,4.3s-2.9,2.4-4.5,3.2
		c0.8,1.8,1.7,3.8,2.6,6s1.8,4.2,2.6,6.2c0.9,2.3,1.9,4.6,2.8,6.9l-10.6,3.7c-0.9-2.9-1.7-5.7-2.5-8.2c-0.3-1.1-0.6-2.1-1-3.3
		c-0.3-1.1-0.6-2.2-0.9-3.2c-0.3-1-0.5-1.9-0.7-2.7c-0.2-0.8-0.3-1.4-0.3-2L293,169c-0.3,1.5-0.6,3.2-1,5.1c-0.4,2-0.7,3.9-1.1,5.7
		c-0.4,2.1-0.8,4.3-1.2,6.5L278.7,189.3z M294.8,159.5c0.9-0.1,1.9-0.5,3.2-1.1c1.3-0.6,2.5-1.4,3.6-2.3c1.1-0.9,2.1-1.8,2.9-2.8
		c0.8-1,1.2-1.8,1.2-2.5c0-0.5-0.2-0.9-0.5-1.2c-0.3-0.3-0.8-0.5-1.3-0.7c-0.6-0.2-1.2-0.3-1.9-0.3c-0.7,0-1.4-0.1-2.1-0.1
		c-0.5,0-1,0-1.5,0c-0.5,0-1,0-1.4,0L294.8,159.5z"/>
</g>
<g>
</g>
<g>
</g>
<g>
</g>
<g>
</g>
<g>
</g>
</svg>
