<?xml version="1.0" encoding="utf-8"?>
<!-- Generator: Adobe Illustrator 24.0.2, SVG Export Plug-In . SVG Version: 6.00 Build 0)  -->
<svg version="1.1" id="Layer_1" xmlns="http://www.w3.org/2000/svg" xmlns:xlink="http://www.w3.org/1999/xlink" x="0px" y="0px"
	 viewBox="0 0 219.4 218.8" style="enable-background:new 0 0 219.4 218.8;" xml:space="preserve">
<style type="text/css">
	.st0{fill:#91D9FA;}
	.st1{fill:#143757;}
	.st2{fill:#0D2338;}
	.st3{fill:#E3E3E3;}
	.st4{fill:#BABABA;}
	.st5{fill:#FCC5A3;}
	.st6{fill:#E6AB88;}
	.st7{fill:#DEA07C;}
	.st8{fill:#61CAFA;}
	.st9{fill:#633324;}
	.st10{fill:#4A261B;}
	.st11{fill:#783E2C;}
	.st12{fill:#663525;}
	.st13{fill:none;stroke:#783E2C;stroke-width:4;stroke-miterlimit:10;}
	.st14{fill:#EB7070;}
	.st15{fill:#FFFFFF;}
</style>
<g>
	
		<ellipse transform="matrix(0.1367 -0.9906 0.9906 0.1367 -12.9508 203.0679)" class="st0" cx="110" cy="109" rx="108.8" ry="108.8"/>
	<path class="st1" d="M110,217.7c21.8,0,42.1-6.4,59.1-17.5c-1-4.3-2.4-7.9-4.2-10.3c-8.8-11.9-55-22.4-55-22.4s-46.1,10.5-55,22.4
		c-1.8,2.4-3.1,6-4.2,10.3C67.9,211.3,88.2,217.7,110,217.7z"/>
	<path class="st2" d="M114.6,217.6c1.1,0,2.1-0.1,3.2-0.2c0.1,0,0.3,0,0.4,0c1.2-0.1,2.4-0.2,3.6-0.3c0.3,0,0.6-0.1,0.8-0.1
		c1-0.1,2-0.2,3-0.4c0.2,0,0.4-0.1,0.6-0.1c1.2-0.2,2.3-0.4,3.5-0.6c0.2,0,0.4-0.1,0.7-0.1c1-0.2,2-0.4,3-0.6c0.2,0,0.4-0.1,0.6-0.1
		c1.2-0.3,2.3-0.5,3.5-0.8c0.1,0,0.2-0.1,0.3-0.1c1.1-0.3,2.1-0.6,3.2-0.9c0.2-0.1,0.4-0.1,0.6-0.2c2.3-0.7,4.6-1.5,6.9-2.3
		c0.2-0.1,0.3-0.1,0.5-0.2c2.3-0.9,4.5-1.8,6.7-2.8c0.1-0.1,0.2-0.1,0.3-0.2c2.2-1,4.4-2.2,6.6-3.3c0.1,0,0.1-0.1,0.2-0.1
		c1.1-0.6,2.1-1.2,3.2-1.8c0,0,0,0,0,0c1.1-0.7,2.2-1.3,3.2-2c0,0,0,0,0,0c-0.5-2-1-3.8-1.7-5.4c-16.7,10.7-36.4,16.9-57.5,16.9
		c-21.1,0-40.8-6.2-57.5-16.9c-0.6,1.6-1.2,3.4-1.7,5.4c0,0,0,0,0,0c1.1,0.7,2.1,1.4,3.2,2c0,0,0,0,0,0c1,0.6,2.1,1.2,3.2,1.8
		c0.1,0,0.1,0.1,0.2,0.1c2.1,1.2,4.3,2.3,6.6,3.3c0.1,0.1,0.2,0.1,0.3,0.2c2.2,1,4.4,2,6.7,2.8c0.2,0.1,0.3,0.1,0.5,0.2
		c2.2,0.9,4.5,1.6,6.9,2.3c0.2,0.1,0.4,0.1,0.6,0.2c1.1,0.3,2.1,0.6,3.2,0.9c0.1,0,0.2,0.1,0.3,0.1c1.2,0.3,2.3,0.6,3.5,0.8
		c0.2,0,0.4,0.1,0.6,0.1c1,0.2,2,0.4,3,0.6c0.2,0,0.4,0.1,0.7,0.1c1.2,0.2,2.3,0.4,3.5,0.6c0.2,0,0.4,0.1,0.6,0.1c1,0.1,2,0.3,3,0.4
		c0.3,0,0.6,0.1,0.8,0.1c1.2,0.1,2.4,0.2,3.6,0.3c0.1,0,0.3,0,0.4,0c1.1,0.1,2.1,0.1,3.2,0.2c0.3,0,0.6,0,1,0c1.2,0,2.4,0.1,3.6,0.1
		c1.2,0,2.4,0,3.6-0.1C114,217.7,114.3,217.7,114.6,217.6z"/>
	<path class="st2" d="M94,171.4l-14.1,15.1l8.8,9.7l-8.8,7.4l7.6,11.7c2.7,0.6,5.5,1.1,8.4,1.4L94,171.4z"/>
	<path class="st2" d="M126.4,171.4l-1.8,45.4c2.8-0.4,5.6-0.9,8.4-1.5l7.6-11.6l-8.8-7.4l8.8-9.7L126.4,171.4z"/>
	<path class="st3" d="M94,171.4l0.8,45.3c5,0.7,10,1.1,15.2,1.1c5.2,0,10.3-0.4,15.3-1.1l0.8-45.3l-16-3.8L94,171.4z"/>
	<path class="st4" d="M114.4,217.7c1.1,0,2.1-0.1,3.2-0.2c0.1,0,0.2,0,0.3,0c2.5-0.2,5-0.4,7.5-0.8l0.1-7.3
		c-5,0.8-10.2,1.2-15.4,1.2c-5.2,0-10.3-0.4-15.3-1.2l0.1,7.3c2.4,0.3,4.9,0.6,7.4,0.8c0.1,0,0.2,0,0.3,0c1,0.1,2.1,0.1,3.1,0.2
		c0.3,0,0.5,0,0.8,0c1.2,0,2.3,0.1,3.5,0.1c1.2,0,2.4,0,3.5-0.1C113.8,217.7,114.1,217.7,114.4,217.7z"/>
	<path class="st4" d="M109.7,184.2c-3.3,0-5.9-0.1-5.9,2.7v0.4c0,2.1,0.7,6.1,3.2,6.9l-1,23.5c1.3,0,2.7,0.1,4,0.1
		c1.1,0,2.3,0,3.4-0.1l-1-23.5c2.5-0.8,3.2-4.8,3.2-6.9v-0.4C115.7,184,113,184.2,109.7,184.2z"/>
	<g>
		<path class="st4" d="M94.8,216.7c0.2,0,0.4,0,0.6,0.1l-0.8-45.3l15.4-3.8l-16,3.8L94.8,216.7z"/>
		<path class="st4" d="M110,167.6l15.4,3.8l-0.7,45.3c0.2,0,0.4,0,0.6-0.1l0.8-45.3L110,167.6z"/>
	</g>
	<polygon class="st4" points="125.9,178.4 126.1,171.9 124.9,171.1 121.6,170.3 109.9,184.7 98.5,170.3 95,171.1 94,171.8 
		94.1,178.8 103.6,191.8 109.9,185 116.2,191.8 	"/>
	<path class="st2" d="M114.9,188.4c0,2.8-2.3,5.1-5.1,5.1l0,0c-2.8,0-5.1-2.3-5.1-5.1v-0.2c0-2.8,2.3-5.1,5.1-5.1l0,0
		c2.8,0,5.1,2.3,5.1,5.1V188.4z"/>
	<polygon class="st5" points="122.8,175.7 110,183.1 97.3,175.7 99.1,145.5 121,145.5 	"/>
	<polygon class="st6" points="109.9,180.5 97.9,166.7 97.3,175.7 110,183.1 122.8,175.7 122.1,166.6 	"/>
	<g>
		<g>
			<g>
				<path class="st5" d="M75.5,110.9c0,9.9-6.2,17.9-13.9,17.9c-7.7,0-13.9-8-13.9-17.9C47.8,101,54,93,61.6,93
					C69.3,93,75.5,101,75.5,110.9z"/>
				<path class="st6" d="M72.6,110.9c0,7.8-4.9,14.1-10.9,14.1c-6,0-10.9-6.3-10.9-14.1c0-7.8,4.9-14.1,10.9-14.1
					C67.7,96.7,72.6,103.1,72.6,110.9z"/>
				<path class="st7" d="M53.6,111.9c0-7.2,4.5-13.1,10.1-13.1c2.2,0,4.3,0.9,5.9,2.5c-2-2.8-4.9-4.6-8.1-4.6
					c-6,0-10.9,6.3-10.9,14.1c0,7.8,4.9,14.1,10.9,14.1c0.4,0,0.7,0,1.1-0.1C57.6,124.2,53.6,118.7,53.6,111.9z"/>
			</g>
			<g>
				<path class="st5" d="M144.6,110.9c0,9.9,6.2,17.9,13.9,17.9c7.7,0,13.9-8,13.9-17.9c0-9.9-6.2-17.9-13.9-17.9
					C150.8,93,144.6,101,144.6,110.9z"/>
				<path class="st6" d="M147.5,110.9c0,7.8,4.9,14.1,10.9,14.1c6,0,10.9-6.3,10.9-14.1c0-7.8-4.9-14.1-10.9-14.1
					C152.4,96.7,147.5,103.1,147.5,110.9z"/>
				<path class="st7" d="M166.4,111.9c0-7.2-4.5-13.1-10.1-13.1c-2.2,0-4.3,0.9-6,2.5c2-2.8,4.9-4.6,8.1-4.6c6,0,10.9,6.3,10.9,14.1
					c0,7.8-4.9,14.1-10.9,14.1c-0.4,0-0.7,0-1.1-0.1C162.5,124.2,166.4,118.7,166.4,111.9z"/>
			</g>
		</g>
		<path class="st5" d="M158.6,106.7c0,31.8-21.9,57.6-48.8,57.6c-27,0-48.8-25.8-48.8-57.6c0-31.8,4.7-66.5,48.8-66.5
			C153.7,40.2,158.6,74.9,158.6,106.7z"/>
		<path class="st0" d="M149,96.2c1.2,0.2,2,1.4,1.8,2.6c-0.2,1.2-1.4,2-2.6,1.8c-1.2-0.2-5.4-2.3-5.4-2.3S147.8,96,149,96.2z"/>
		<path class="st0" d="M146.8,115.8c0,1.2-1,2.2-2.2,2.2c-1.2,0-2.2-1-2.2-2.2c0-1.2,1.3-5.7,1.3-5.7S146.8,114.6,146.8,115.8z"/>
		<path class="st0" d="M72.5,94.5c-1.2-0.2-2.3,0.6-2.5,1.9c-0.2,1.2,0.6,2.3,1.9,2.5c1.2,0.2,5.8-0.5,5.8-0.5S73.8,94.7,72.5,94.5z
			"/>
		<path class="st0" d="M73.5,113.3c-0.3,1.2,0.4,2.4,1.6,2.7c1.2,0.3,2.4-0.4,2.7-1.6c0.3-1.2,0-5.9,0-5.9S73.8,112.1,73.5,113.3z"
			/>
		<path class="st0" d="M138.9,98.8c0,0,12.6,15.9,16.3,28.8c1.4-4.3,2.4-8.9,2.9-13.6C152.7,106.5,138.9,98.8,138.9,98.8z"/>
		<path class="st0" d="M64.4,128.1c-0.1-15.4,15.4-28,15.4-28s-13.4,2.6-18.9,8C61.1,115.1,62.3,121.9,64.4,128.1z"/>
		<path class="st6" d="M109.8,40.2c-38.6,0-47,26.5-48.5,54.5c1.2,6.4,2.5,10.9,2.5,10.9c7.4-12.3,9.7-28.7,10.3-34.7
			c6.9,3.5,15.7,6.6,26.3,7.9c24.1,2.9,36-6.1,44.7-10.2c0,0,1.3,21.7,10.5,37c0,0,1.4-4.9,2.7-12C156.5,66,147.7,40.2,109.8,40.2z"
			/>
		<path class="st6" d="M109.8,40.2c-44.1,0-48.8,34.7-48.8,66.5c0,31.8,21.9,57.6,48.8,57.6c27,0,48.8-25.8,48.8-57.6
			C158.6,74.9,153.7,40.2,109.8,40.2z M109.8,161c-25.6,0-46.3-24.4-46.3-54.6c0-30.1,4.4-63,46.3-63c41.6,0,46.3,32.9,46.3,63
			C156,136.6,135.3,161,109.8,161z"/>
		<path class="st8" d="M155.9,111.2c-0.3,4.2-1,8.2-2.1,12.1c0.6,1.4,1.1,2.8,1.5,4.2c1.4-4.3,2.4-8.9,2.9-13.6c0,0,0,0,0,0
			C157.5,113.1,156.7,112.1,155.9,111.2z"/>
		<path class="st8" d="M63.5,106.4c0-0.1,0-0.2,0-0.3c-0.9,0.6-1.8,1.3-2.5,2c0,0,0,0,0,0c0.1,7,1.4,13.8,3.5,20
			c0-2.2,0.3-4.4,0.9-6.5C64.1,116.8,63.5,111.7,63.5,106.4z"/>
		<path class="st9" d="M72.1,64.6c0,0-1.4,24.6-11.2,42c0,0-8.1-29.6-3.4-49.7c2.2-9.3,11.8-11.2,11.8-11.2L72.1,64.6z"/>
		<path class="st10" d="M69.4,45.8c0,0-0.9,0.2-2.3,0.7L69,59.2c0,0-1.3,22.3-9.8,39.5c1,4.9,1.8,8,1.8,8c9.8-17.4,11.2-42,11.2-42
			L69.4,45.8z"/>
		<path class="st10" d="M57.6,57c-0.3,1.4-0.6,2.9-0.8,4.5c3.7,3,8.6,6.4,14.7,9.3c0.5-3.8,0.6-6.2,0.6-6.2l-2.7-18.8
			C69.4,45.8,59.8,47.7,57.6,57z"/>
		<path class="st11" d="M158.6,106.7c0,0,8.1-29.6,3.4-49.7c-2.2-9.3-11.8-11.2-11.8-11.2s-8.1-16.2-30-22
			c-16-4.2-34.6,2.2-50.7,18.2c-8.9,8.9-17.9,8.9-17.9,8.9S67.4,72,99.9,76.2c25.6,3.3,38.3-6.9,47.5-11.6
			C147.4,64.6,148.8,89.3,158.6,106.7z"/>
		<path class="st12" d="M160.3,99.5c-8.4-17-10.1-29-9.7-39.1c0.1-2.5,1.3-10.5,1.8-13.8c-1.4-0.5-2.3-0.7-2.3-0.7s0,0,0-0.1
			c-0.7,3.4-2.5,11.8-2.7,19c0.1,1.6,1.8,25.1,11.2,41.9C158.6,106.7,159.3,103.9,160.3,99.5z"/>
		<g>
			<path class="st12" d="M147.4,64.6c0,0,0.1,1.4,0.3,3.8C147.5,66.1,147.4,64.6,147.4,64.6z"/>
			<path class="st12" d="M99.9,71.8c-23.7-3.1-38.5-15.1-44.8-21.4c-2.2,0.5-3.6,0.5-3.6,0.5S67.4,72,99.9,76.2
				c25.6,3.3,38.3-6.9,47.5-11.6C138.2,69.3,125.5,75.1,99.9,71.8z"/>
		</g>
		<path class="st6" d="M121.1,107.2c0.1,0.6,0.1,1.2,0.1,1.8c0,7.1-5,9.1-11.3,9.1c-6.2,0-11.3-2-11.3-9.1c0-0.6,0-1.2,0.1-1.8
			c-0.5,1.4-0.8,2.9-0.8,4.4c0,7.1,5.3,9.1,11.9,9.1c6.6,0,11.9-2,11.9-9.1C121.8,110.1,121.5,108.6,121.1,107.2z"/>
		<path class="st13" d="M121.2,80.9c1.6,3.7,5.7,7.2,11.5,6.2c6.1-0.1,11.5-6.2,11.5-6.2"/>
		<path class="st13" d="M73.8,81.9c2.1,3.7,7,6.3,13,6c3.3,0,8.5-2.4,10-6"/>
		<g>
			<g>
				<path class="st11" d="M79.2,103.5c0,0,0-0.1,0-0.2c0-0.1-0.1-0.3-0.1-0.6c-0.1-0.5-0.1-1.3,0-2.2c0.2-0.9,0.5-2,1.3-2.9
					c0.4-0.5,0.9-0.9,1.5-1.3c0.6-0.3,1.3-0.6,2.1-0.6l0.5,0c0.2,0,0.4,0.1,0.6,0.1c0.4,0.1,0.7,0.2,1,0.4c0.6,0.3,1.1,0.8,1.5,1.3
					c0.8,1,1.1,2,1.3,2.9c0.2,0.9,0.1,1.7,0,2.2c-0.1,0.5-0.2,0.8-0.2,0.8s-0.1-0.3-0.2-0.8c-0.2-0.5-0.4-1.1-0.7-1.9
					c-0.2-0.4-0.4-0.7-0.6-1.1c-0.2-0.4-0.5-0.7-0.9-1c-0.3-0.3-0.7-0.6-1.1-0.7c-0.2-0.1-0.4-0.2-0.6-0.2c-0.1,0-0.1,0-0.3-0.1
					l-0.2,0l-0.1,0l-0.1,0l0,0l0,0h0c0,0-0.1,0,0.1,0c-0.4,0-0.8,0.1-1.2,0.3c-0.4,0.2-0.8,0.4-1.1,0.7c-0.3,0.3-0.6,0.7-0.9,1
					c-0.2,0.4-0.5,0.7-0.6,1.1c-0.3,0.7-0.6,1.4-0.7,1.8C79.3,103.2,79.2,103.5,79.2,103.5z"/>
			</g>
		</g>
		<g>
			<g>
				<path class="st11" d="M130.9,103.5c0,0,0-0.1,0-0.2c0-0.1-0.1-0.3-0.1-0.6c-0.1-0.5-0.1-1.3,0-2.2c0.2-0.9,0.5-2,1.3-2.9
					c0.4-0.5,0.9-0.9,1.5-1.3c0.6-0.3,1.3-0.6,2.1-0.6l0.5,0c0.2,0,0.4,0.1,0.6,0.1c0.4,0.1,0.7,0.2,1,0.4c0.6,0.3,1.1,0.8,1.5,1.3
					c0.8,1,1.1,2,1.3,2.9c0.2,0.9,0.1,1.7,0,2.2c-0.1,0.5-0.2,0.8-0.2,0.8s-0.1-0.3-0.2-0.8c-0.2-0.5-0.4-1.1-0.7-1.9
					c-0.2-0.4-0.4-0.7-0.6-1.1c-0.2-0.4-0.5-0.7-0.9-1c-0.3-0.3-0.7-0.6-1.1-0.7c-0.2-0.1-0.4-0.2-0.6-0.2c-0.1,0-0.1,0-0.3-0.1
					l-0.2,0l-0.1,0l-0.1,0l0,0l0,0l0,0c0,0-0.1,0,0.1,0c-0.4,0-0.8,0.1-1.2,0.3c-0.4,0.2-0.8,0.4-1.1,0.7c-0.3,0.3-0.6,0.7-0.9,1
					c-0.2,0.4-0.5,0.7-0.6,1.1c-0.3,0.7-0.6,1.4-0.7,1.8C131,103.2,130.9,103.5,130.9,103.5z"/>
			</g>
		</g>
		<path class="st14" d="M126.1,142.3c0,7-6,6.1-13.4,6.1l-4.8,0c-7.4,0-13.4,0.9-13.4-6.1l0,0c0-7,6-19.1,13.4-19.1l4.8,0
			C120.1,123.2,126.1,135.4,126.1,142.3L126.1,142.3z"/>
		<path class="st15" d="M120.3,127.6c-2.2-2.6-4.8-4.4-7.6-4.4l-4.8,0c-2.8,0-5.4,1.8-7.6,4.4H120.3z"/>
		<path class="st15" d="M94.8,145c1.5,4.1,6.7,3.4,13,3.4l4.8,0c6.3,0,11.5,0.6,13-3.4H94.8z"/>
	</g>
	<polygon class="st15" points="97.7,167.6 110,183.1 103.6,190 90.6,172.2 	"/>
	<polygon class="st15" points="122.3,167.6 109.8,183.1 116.2,190 129.2,172.2 	"/>
	<path class="st2" d="M50.9,200.3c4.1,2.6,8.3,5,12.8,7.1c-1-7.7-2.5-14.8-4.4-21.2c-1.8,1.3-3.2,2.6-4.2,3.9
		C53.3,192.4,51.9,196,50.9,200.3z"/>
	<path class="st2" d="M155.3,207.9c4.8-2.2,9.5-4.8,13.9-7.6c-1-4.3-2.4-7.9-4.2-10.3c-1.1-1.5-2.9-3-5-4.5
		C157.9,192.3,156.3,199.8,155.3,207.9z"/>
	<path class="st2" d="M106.5,217.7c1.2,0,2.4,0.1,3.6,0.1c1,0,2,0,3-0.1l-1.6-29.6H108L106.5,217.7z"/>
</g>
<g>
</g>
<g>
</g>
<g>
</g>
<g>
</g>
<g>
</g>
</svg>
