<?xml version="1.0" encoding="utf-8"?>
<!-- Generator: Adobe Illustrator 24.0.2, SVG Export Plug-In . SVG Version: 6.00 Build 0)  -->
<svg version="1.1" id="Layer_1" xmlns="http://www.w3.org/2000/svg" xmlns:xlink="http://www.w3.org/1999/xlink" x="0px" y="0px"
	 viewBox="0 0 219.4 218.8" style="enable-background:new 0 0 219.4 218.8;" xml:space="preserve">
<style type="text/css">
	.st0{fill:#91D9FA;}
	.st1{fill:#143757;}
	.st2{fill:#0D2338;}
	.st3{fill:#E3E3E3;}
	.st4{fill:#BABABA;}
	.st5{fill:#FCC5A3;}
	.st6{fill:#E6AB88;}
	.st7{fill:#FFFFFF;}
	.st8{fill:#DEA07C;}
	.st9{fill:#633324;}
	.st10{fill:#4A261B;}
	.st11{fill:#783E2C;}
	.st12{fill:#663525;}
	.st13{fill:none;stroke:#783E2C;stroke-width:3.98;stroke-miterlimit:10;}
	.st14{fill:#EB7070;}
</style>
<g>
	<ellipse class="st0" cx="109.2" cy="108.6" rx="107.6" ry="108.9"/>
	<path class="st1" d="M109.2,217.4c21.6,0,41.7-6.4,58.5-17.5c-1-4.3-2.4-7.9-4.1-10.3c-8.7-11.9-54.4-22.4-54.4-22.4
		s-45.6,10.5-54.4,22.4c-1.8,2.4-3.1,6-4.1,10.3C67.5,211,87.6,217.4,109.2,217.4z"/>
	<path class="st2" d="M113.7,217.3c1.1,0,2.1-0.1,3.1-0.2c0.1,0,0.3,0,0.4,0c1.2-0.1,2.3-0.2,3.5-0.3c0.3,0,0.6-0.1,0.8-0.1
		c1-0.1,2-0.2,3-0.4c0.2,0,0.4-0.1,0.6-0.1c1.2-0.2,2.3-0.4,3.5-0.6c0.2,0,0.4-0.1,0.6-0.1c1-0.2,2-0.4,3-0.6c0.2,0,0.4-0.1,0.6-0.1
		c1.2-0.3,2.3-0.5,3.5-0.8c0.1,0,0.2-0.1,0.3-0.1c1.1-0.3,2.1-0.6,3.1-0.9c0.2-0.1,0.4-0.1,0.6-0.2c2.3-0.7,4.6-1.5,6.8-2.3
		c0.2-0.1,0.3-0.1,0.5-0.2c2.2-0.9,4.5-1.8,6.6-2.8c0.1-0.1,0.2-0.1,0.3-0.2c2.2-1,4.4-2.2,6.5-3.3c0.1,0,0.1-0.1,0.2-0.1
		c1.1-0.6,2.1-1.2,3.2-1.8c0,0,0,0,0,0c1.1-0.7,2.1-1.3,3.2-2c0,0,0,0,0,0c-0.5-2-1-3.8-1.6-5.4c-16.5,10.7-36,16.9-56.9,16.9
		c-20.9,0-40.4-6.2-56.9-16.9c-0.6,1.6-1.2,3.4-1.6,5.4c0,0,0,0,0,0c1,0.7,2.1,1.4,3.2,2c0,0,0,0,0,0c1,0.6,2.1,1.2,3.2,1.8
		c0.1,0,0.1,0.1,0.2,0.1c2.1,1.2,4.3,2.3,6.5,3.3c0.1,0.1,0.2,0.1,0.3,0.2c2.2,1,4.4,2,6.6,2.8c0.2,0.1,0.3,0.1,0.5,0.2
		c2.2,0.9,4.5,1.6,6.8,2.3c0.2,0.1,0.4,0.1,0.6,0.2c1,0.3,2.1,0.6,3.1,0.9c0.1,0,0.2,0.1,0.3,0.1c1.1,0.3,2.3,0.6,3.5,0.8
		c0.2,0,0.4,0.1,0.6,0.1c1,0.2,2,0.4,3,0.6c0.2,0,0.4,0.1,0.6,0.1c1.2,0.2,2.3,0.4,3.5,0.6c0.2,0,0.4,0.1,0.6,0.1c1,0.1,2,0.3,3,0.4
		c0.3,0,0.6,0.1,0.8,0.1c1.2,0.1,2.3,0.2,3.5,0.3c0.1,0,0.3,0,0.4,0c1,0.1,2.1,0.1,3.1,0.2c0.3,0,0.6,0,0.9,0c1.2,0,2.4,0.1,3.6,0.1
		c1.2,0,2.4,0,3.6-0.1C113.1,217.3,113.4,217.3,113.7,217.3z"/>
	<path class="st2" d="M93.3,171l-14,15.2l8.7,9.7l-8.7,7.4l7.5,11.7c2.7,0.6,5.5,1.1,8.3,1.4L93.3,171z"/>
	<path class="st2" d="M125.4,171l-1.8,45.4c2.8-0.4,5.6-0.9,8.3-1.5l7.5-11.6l-8.7-7.4l8.7-9.7L125.4,171z"/>
	<path class="st3" d="M93.3,171l0.8,45.3c4.9,0.7,9.9,1.1,15,1.1c5.1,0,10.2-0.4,15.1-1.1L125,171l-15.9-3.8L93.3,171z"/>
	<path class="st4" d="M113.4,217.3c1,0,2.1-0.1,3.1-0.2c0.1,0,0.2,0,0.3,0c2.5-0.2,5-0.4,7.4-0.8l0.1-7.3c-5,0.8-10.1,1.2-15.2,1.2
		c-5.1,0-10.2-0.4-15.2-1.2l0.1,7.3c2.4,0.3,4.9,0.6,7.3,0.8c0.1,0,0.2,0,0.3,0c1,0.1,2.1,0.1,3.1,0.2c0.3,0,0.5,0,0.8,0
		c1.2,0,2.3,0.1,3.5,0.1c1.2,0,2.3,0,3.5-0.1C112.9,217.3,113.2,217.3,113.4,217.3z"/>
	<path class="st4" d="M108.9,183.8c-3.2,0-5.9-0.1-5.9,2.7v0.4c0,2.1,0.7,6.1,3.2,6.9l-1,23.5c1.3,0,2.6,0.1,4,0.1
		c1.1,0,2.3,0,3.4-0.1l-1-23.5c2.5-0.8,3.2-4.8,3.2-6.9v-0.4C114.7,183.7,112.1,183.8,108.9,183.8z"/>
	<g>
		<path class="st4" d="M94.1,216.3c0.2,0,0.4,0,0.6,0.1l-0.8-45.3l15.2-3.8L93.3,171L94.1,216.3z"/>
		<path class="st4" d="M109.2,167.2l15.2,3.8l-0.7,45.3c0.2,0,0.4,0,0.6-0.1L125,171L109.2,167.2z"/>
	</g>
	<polygon class="st4" points="124.9,178 125,171.5 123.8,170.7 120.6,170 109,184.3 97.7,170 94.3,170.8 93.3,171.4 93.4,178.4 
		102.9,191.4 109,184.6 115.2,191.4 	"/>
	<path class="st2" d="M114,188c0,2.8-2.3,5.1-5.1,5.1l0,0c-2.8,0-5.1-2.3-5.1-5.1v-0.2c0-2.8,2.3-5.1,5.1-5.1l0,0
		c2.8,0,5.1,2.3,5.1,5.1V188z"/>
	<polygon class="st5" points="121.8,175.3 109.2,182.7 96.5,175.3 98.3,145.1 120,145.1 	"/>
	<polygon class="st6" points="109,180.1 97.2,166.3 96.5,175.3 109.2,182.7 121.8,175.3 121.1,166.3 	"/>
	<polygon class="st7" points="97,167.2 109.2,182.7 102.9,189.6 90,171.8 	"/>
	<polygon class="st7" points="121.3,167.2 108.9,182.7 115.2,189.6 128.1,171.8 	"/>
	<path class="st2" d="M50.6,199.9c4,2.6,8.3,5,12.6,7.1c-1-7.7-2.5-14.8-4.4-21.3c-1.7,1.3-3.2,2.6-4.1,3.9
		C53,192,51.7,195.6,50.6,199.9z"/>
	<path class="st2" d="M153.9,207.6c4.8-2.2,9.4-4.8,13.7-7.6c-1-4.3-2.4-7.9-4.1-10.3c-1.1-1.5-2.8-3-5-4.5
		C156.5,191.9,154.9,199.5,153.9,207.6z"/>
	<path class="st2" d="M105.6,217.3c1.2,0,2.4,0.1,3.5,0.1c1,0,2,0,2.9-0.1l-1.5-29.6h-3.4L105.6,217.3z"/>
	<g>
		<g>
			<g>
				<path class="st5" d="M75,124.3c0,9.9-6.1,17.9-13.7,17.9c-7.6,0-13.7-8-13.7-17.9c0-9.9,6.1-17.9,13.7-17.9
					C68.9,106.4,75,114.4,75,124.3z"/>
				<path class="st6" d="M72.1,124.3c0,7.8-4.8,14.1-10.8,14.1c-6,0-10.8-6.3-10.8-14.1c0-7.8,4.8-14.1,10.8-14.1
					C67.3,110.2,72.1,116.5,72.1,124.3z"/>
				<path class="st8" d="M53.4,125.4c0-7.2,4.5-13.1,10-13.1c2.2,0,4.2,0.9,5.9,2.5c-2-2.8-4.8-4.6-8-4.6c-6,0-10.8,6.3-10.8,14.1
					c0,7.8,4.8,14.1,10.8,14.1c0.4,0,0.7,0,1.1-0.1C57.3,137.7,53.4,132.1,53.4,125.4z"/>
			</g>
			<g>
				<path class="st5" d="M143.3,124.3c0,9.9,6.1,17.9,13.7,17.9c7.6,0,13.7-8,13.7-17.9c0-9.9-6.1-17.9-13.7-17.9
					C149.5,106.4,143.3,114.4,143.3,124.3z"/>
				<path class="st6" d="M146.2,124.3c0,7.8,4.8,14.1,10.8,14.1c6,0,10.8-6.3,10.8-14.1c0-7.8-4.8-14.1-10.8-14.1
					C151.1,110.2,146.2,116.5,146.2,124.3z"/>
				<path class="st8" d="M165,125.4c0-7.2-4.5-13.1-10-13.1c-2.2,0-4.2,0.9-5.9,2.5c2-2.8,4.8-4.6,8-4.6c6,0,10.8,6.3,10.8,14.1
					c0,7.8-4.8,14.1-10.8,14.1c-0.4,0-0.7,0-1.1-0.1C161,137.7,165,132.1,165,125.4z"/>
			</g>
		</g>
		<path class="st5" d="M157.2,120.1c0,31.8-21.6,57.6-48.3,57.6c-26.7,0-48.3-25.8-48.3-57.6c0-31.8,4.6-66.5,48.3-66.5
			C152.4,53.6,157.2,88.3,157.2,120.1z"/>
		<path class="st6" d="M108.9,53.6c-38.2,0-46.5,26.5-48,54.5c1.2,6.4,2.5,10.9,2.5,10.9c7.3-12.3,9.6-28.7,10.2-34.7
			c6.8,3.5,15.5,6.6,26.1,7.9c23.8,2.9,35.7-6.1,44.2-10.2c0,0,1.3,21.7,10.4,37c0,0,1.4-4.9,2.7-12
			C155.2,79.4,146.4,53.6,108.9,53.6z"/>
		<path class="st6" d="M108.9,53.6c-43.7,0-48.3,34.7-48.3,66.5c0,31.8,21.6,57.6,48.3,57.6c26.7,0,48.3-25.8,48.3-57.6
			C157.2,88.3,152.4,53.6,108.9,53.6z M108.9,174.5c-25.3,0-45.8-24.5-45.8-54.6c0-30.2,4.4-63.1,45.8-63.1
			c41.2,0,45.8,32.9,45.8,63.1C154.7,150.1,134.2,174.5,108.9,174.5z"/>
		<path class="st9" d="M71.7,78.1c0,0-1.4,24.6-11.1,42.1c0,0-8-29.7-3.3-49.7C59.5,61.1,69,59.2,69,59.2L71.7,78.1z"/>
		<path class="st10" d="M69,59.2c0,0-0.9,0.2-2.3,0.7l1.8,12.7c0,0-1.3,22.3-9.7,39.5c1,4.9,1.8,8,1.8,8
			c9.7-17.4,11.1-42.1,11.1-42.1L69,59.2z"/>
		<path class="st10" d="M57.3,70.4c-0.3,1.4-0.6,3-0.8,4.5c3.7,3,8.5,6.4,14.6,9.3c0.5-3.8,0.6-6.2,0.6-6.2L69,59.2
			C69,59.2,59.5,61.1,57.3,70.4z"/>
		<path class="st11" d="M157.2,120.1c0,0,8-29.7,3.3-49.7c-2.2-9.4-11.7-11.2-11.7-11.2s-8-16.2-29.7-22C103.3,33,85,39.4,69,55.5
			c-8.9,8.9-17.7,8.9-17.7,8.9S67,85.4,99.2,89.7c25.4,3.3,37.9-6.9,47-11.6C146.1,78.1,147.6,102.7,157.2,120.1z"/>
		<path class="st12" d="M158.9,112.9c-8.3-17-10-29.1-9.6-39.2c0.1-2.5,1.3-10.5,1.8-13.8c-1.3-0.5-2.3-0.7-2.3-0.7s0,0,0-0.1
			c-0.7,3.4-2.5,11.8-2.6,19c0.1,1.6,1.7,25.1,11.1,42C157.2,120.1,158,117.3,158.9,112.9z"/>
		<g>
			<path class="st12" d="M146.1,78.1c0,0,0.1,1.4,0.3,3.8C146.3,79.5,146.1,78.1,146.1,78.1z"/>
			<path class="st12" d="M99.2,85.2c-23.4-3.1-38.1-15.1-44.4-21.4c-2.2,0.5-3.5,0.5-3.5,0.5S67,85.4,99.2,89.7
				c25.4,3.3,37.9-6.9,47-11.6C137.1,82.7,124.5,88.5,99.2,85.2z"/>
		</g>
		<g>
			<path class="st11" d="M87.2,113.2c0,3.7-2.1,6.8-4.6,6.8c-2.6,0-4.6-3-4.6-6.8c0-3.7,2.1-6.8,4.6-6.8
				C85.2,106.4,87.2,109.4,87.2,113.2z"/>
			<path class="st7" d="M82.6,110.7c0,1.1-0.6,2-1.4,2c-0.8,0-1.4-0.9-1.4-2s0.6-2,1.4-2C82,108.6,82.6,109.5,82.6,110.7z"/>
		</g>
		<g>
			<ellipse class="st11" cx="133.8" cy="113.2" rx="4.6" ry="6.8"/>
			<ellipse class="st7" cx="132.4" cy="110.7" rx="1.4" ry="2"/>
		</g>
		<path class="st6" d="M120.1,118.9c0.1,0.6,0.1,1.2,0.1,1.8c0,7.1-5,9.1-11.1,9.1c-6.2,0-11.2-2-11.2-9.1c0-0.6,0-1.2,0.1-1.8
			c-0.5,1.4-0.7,2.9-0.7,4.5c0,7.1,5.3,9.1,11.8,9.1c6.5,0,11.8-2,11.8-9.1C120.8,121.8,120.6,120.3,120.1,118.9z"/>
		<path class="st13" d="M73.4,96c2.1,3.7,20.9,10.4,20.9,10.4"/>
		<path class="st13" d="M123.6,106.4c0,0,17.3-6.8,19.4-10.4"/>
		<path class="st14" d="M124.6,157.7c0,7.4-5.9,6.5-13.3,6.5h-4.8c-7.3,0-13.3,0.9-13.3-6.5l0,0c0-7.4,5.9-20.4,13.3-20.4h4.8
			C118.6,137.4,124.6,150.3,124.6,157.7L124.6,157.7z"/>
		<path class="st7" d="M118,141c-2-2.2-4.2-3.6-6.7-3.6h-4.8c-2.4,0-4.7,1.4-6.7,3.6H118z"/>
		<path class="st7" d="M93.3,158.4c0.4,6.6,6.2,5.8,13.2,5.8h4.8c7.1,0,12.9,0.9,13.2-5.8H93.3z"/>
	</g>
</g>
<g>
</g>
<g>
</g>
<g>
</g>
<g>
</g>
<g>
</g>
</svg>
