<?xml version="1.0" encoding="utf-8"?>
<!-- Generator: Adobe Illustrator 24.0.2, SVG Export Plug-In . SVG Version: 6.00 Build 0)  -->
<svg version="1.1" id="Layer_1" xmlns="http://www.w3.org/2000/svg" xmlns:xlink="http://www.w3.org/1999/xlink" x="0px" y="0px"
	 viewBox="0 0 219.4 218.8" style="enable-background:new 0 0 219.4 218.8;" xml:space="preserve">
<style type="text/css">
	.st0{fill:#91D9FA;}
	.st1{fill:#143757;}
	.st2{fill:#0D2338;}
	.st3{fill:#E3E3E3;}
	.st4{fill:#BABABA;}
	.st5{fill:#FCC5A3;}
	.st6{fill:#E6AB88;}
	.st7{fill:#DEA07C;}
	.st8{fill:#FFFFFF;}
	.st9{fill:#633324;}
	.st10{fill:#4A261B;}
	.st11{fill:#783E2C;}
	.st12{fill:#663525;}
	.st13{fill:none;stroke:#783E2C;stroke-width:4;stroke-miterlimit:10;}
</style>
<g>
	
		<ellipse transform="matrix(0.7071 -0.7071 0.7071 0.7071 -44.954 109.3999)" class="st0" cx="109.6" cy="109" rx="108.8" ry="108.8"/>
	<path class="st1" d="M109.6,217.7c21.8,0,42.1-6.4,59.1-17.5c-1-4.3-2.4-7.9-4.2-10.3c-8.8-11.9-55-22.4-55-22.4
		s-46.1,10.5-55,22.4c-1.8,2.4-3.1,6-4.2,10.3C67.5,211.3,87.8,217.7,109.6,217.7z"/>
	<path class="st2" d="M114.2,217.6c1.1,0,2.1-0.1,3.2-0.2c0.1,0,0.3,0,0.4,0c1.2-0.1,2.4-0.2,3.6-0.3c0.3,0,0.6-0.1,0.8-0.1
		c1-0.1,2-0.2,3-0.4c0.2,0,0.4-0.1,0.6-0.1c1.2-0.2,2.3-0.4,3.5-0.6c0.2,0,0.4-0.1,0.7-0.1c1-0.2,2-0.4,3-0.6c0.2,0,0.4-0.1,0.6-0.1
		c1.2-0.3,2.3-0.5,3.5-0.8c0.1,0,0.2-0.1,0.3-0.1c1.1-0.3,2.1-0.6,3.2-0.9c0.2-0.1,0.4-0.1,0.6-0.2c2.3-0.7,4.6-1.5,6.9-2.3
		c0.2-0.1,0.3-0.1,0.5-0.2c2.3-0.9,4.5-1.8,6.7-2.8c0.1-0.1,0.2-0.1,0.3-0.2c2.2-1,4.4-2.2,6.6-3.3c0.1,0,0.1-0.1,0.2-0.1
		c1.1-0.6,2.1-1.2,3.2-1.8c0,0,0,0,0,0c1.1-0.7,2.2-1.3,3.2-2c0,0,0,0,0,0c-0.5-2-1-3.8-1.7-5.4c-16.7,10.7-36.4,16.9-57.5,16.9
		c-21.1,0-40.8-6.2-57.5-16.9c-0.6,1.6-1.2,3.4-1.7,5.4c0,0,0,0,0,0c1.1,0.7,2.1,1.4,3.2,2c0,0,0,0,0,0c1,0.6,2.1,1.2,3.2,1.8
		c0.1,0,0.1,0.1,0.2,0.1c2.1,1.2,4.3,2.3,6.6,3.3c0.1,0.1,0.2,0.1,0.3,0.2c2.2,1,4.4,2,6.7,2.8c0.2,0.1,0.3,0.1,0.5,0.2
		c2.3,0.9,4.5,1.6,6.9,2.3c0.2,0.1,0.4,0.1,0.6,0.2c1.1,0.3,2.1,0.6,3.2,0.9c0.1,0,0.2,0.1,0.3,0.1c1.2,0.3,2.3,0.6,3.5,0.8
		c0.2,0,0.4,0.1,0.6,0.1c1,0.2,2,0.4,3,0.6c0.2,0,0.4,0.1,0.7,0.1c1.2,0.2,2.3,0.4,3.5,0.6c0.2,0,0.4,0.1,0.6,0.1c1,0.1,2,0.3,3,0.4
		c0.3,0,0.6,0.1,0.8,0.1c1.2,0.1,2.4,0.2,3.6,0.3c0.1,0,0.3,0,0.4,0c1.1,0.1,2.1,0.1,3.2,0.2c0.3,0,0.6,0,1,0c1.2,0,2.4,0.1,3.6,0.1
		c1.2,0,2.4,0,3.6-0.1C113.5,217.7,113.8,217.7,114.2,217.6z"/>
	<path class="st2" d="M93.5,171.4l-14.1,15.1l8.8,9.7l-8.8,7.4l7.6,11.7c2.7,0.6,5.5,1.1,8.4,1.4L93.5,171.4z"/>
	<path class="st2" d="M126,171.4l-1.8,45.4c2.8-0.4,5.6-0.9,8.4-1.5l7.6-11.6l-8.8-7.4l8.8-9.7L126,171.4z"/>
	<path class="st3" d="M93.5,171.4l0.8,45.3c5,0.7,10,1.1,15.2,1.1c5.2,0,10.3-0.4,15.3-1.1l0.8-45.3l-16-3.8L93.5,171.4z"/>
	<path class="st4" d="M113.9,217.7c1.1,0,2.1-0.1,3.2-0.2c0.1,0,0.2,0,0.3,0c2.5-0.2,5-0.4,7.5-0.8l0.1-7.3
		c-5,0.8-10.2,1.2-15.4,1.2c-5.2,0-10.3-0.4-15.3-1.2l0.1,7.3c2.4,0.3,4.9,0.6,7.4,0.8c0.1,0,0.2,0,0.3,0c1,0.1,2.1,0.1,3.1,0.2
		c0.3,0,0.5,0,0.8,0c1.2,0,2.3,0.1,3.5,0.1c1.2,0,2.4,0,3.5-0.1C113.4,217.7,113.6,217.7,113.9,217.7z"/>
	<path class="st4" d="M109.3,184.2c-3.3,0-5.9-0.1-5.9,2.7v0.4c0,2.1,0.7,6.1,3.2,6.9l-1,23.5c1.3,0,2.7,0.1,4,0.1
		c1.1,0,2.3,0,3.4-0.1l-1-23.5c2.5-0.8,3.2-4.8,3.2-6.9v-0.4C115.2,184,112.6,184.2,109.3,184.2z"/>
	<g>
		<path class="st4" d="M94.4,216.7c0.2,0,0.4,0,0.6,0.1l-0.8-45.3l15.4-3.8l-16,3.8L94.4,216.7z"/>
		<path class="st4" d="M109.6,167.6l15.4,3.8l-0.7,45.3c0.2,0,0.4,0,0.6-0.1l0.8-45.3L109.6,167.6z"/>
	</g>
	<polygon class="st4" points="125.5,178.4 125.6,171.9 124.4,171.1 121.1,170.3 109.5,184.7 98,170.3 94.6,171.1 93.6,171.8 
		93.7,178.8 103.2,191.8 109.5,185 115.7,191.8 	"/>
	<path class="st2" d="M114.4,188.4c0,2.8-2.3,5.1-5.1,5.1l0,0c-2.8,0-5.1-2.3-5.1-5.1v-0.2c0-2.8,2.3-5.1,5.1-5.1l0,0
		c2.8,0,5.1,2.3,5.1,5.1V188.4z"/>
	<polygon class="st5" points="122.4,175.7 109.6,183.1 96.8,175.7 98.6,145.5 120.5,145.5 	"/>
	<polygon class="st6" points="109.5,180.5 97.5,166.7 96.8,175.7 109.6,183.1 122.4,175.7 121.7,166.6 	"/>
	<g>
		<g>
			<g>
				<path class="st5" d="M75,110.9c0,9.9-6.2,17.9-13.9,17.9c-7.7,0-13.9-8-13.9-17.9c0-9.9,6.2-17.9,13.9-17.9
					C68.8,93,75,101,75,110.9z"/>
				<path class="st6" d="M72.1,110.9c0,7.8-4.9,14.1-10.9,14.1c-6,0-10.9-6.3-10.9-14.1c0-7.8,4.9-14.1,10.9-14.1
					C67.2,96.7,72.1,103.1,72.1,110.9z"/>
				<path class="st7" d="M53.2,111.9c0-7.2,4.5-13.1,10.1-13.1c2.2,0,4.3,0.9,5.9,2.5c-2-2.8-4.9-4.6-8.1-4.6
					c-6,0-10.9,6.3-10.9,14.1c0,7.8,4.9,14.1,10.9,14.1c0.4,0,0.7,0,1.1-0.1C57.1,124.3,53.2,118.7,53.2,111.9z"/>
			</g>
			<g>
				<path class="st5" d="M144.1,110.9c0,9.9,6.2,17.9,13.9,17.9c7.7,0,13.9-8,13.9-17.9c0-9.9-6.2-17.9-13.9-17.9
					C150.3,93,144.1,101,144.1,110.9z"/>
				<path class="st6" d="M147,110.9c0,7.8,4.9,14.1,10.9,14.1c6,0,10.9-6.3,10.9-14.1c0-7.8-4.9-14.1-10.9-14.1
					C151.9,96.7,147,103.1,147,110.9z"/>
				<path class="st7" d="M166,111.9c0-7.2-4.5-13.1-10.1-13.1c-2.2,0-4.3,0.9-6,2.5c2-2.8,4.9-4.6,8.1-4.6c6,0,10.9,6.3,10.9,14.1
					c0,7.8-4.9,14.1-10.9,14.1c-0.4,0-0.7,0-1.1-0.1C162,124.3,166,118.7,166,111.9z"/>
			</g>
		</g>
		<path class="st5" d="M158.1,106.7c0,31.8-21.9,57.6-48.8,57.6c-27,0-48.8-25.8-48.8-57.6c0-31.8,4.7-66.5,48.8-66.5
			C153.2,40.2,158.1,74.9,158.1,106.7z"/>
		<path class="st6" d="M109.3,40.2c-38.6,0-47,26.5-48.5,54.5c1.2,6.4,2.5,10.9,2.5,10.9c7.4-12.3,9.7-28.7,10.3-34.7
			c6.9,3.5,15.7,6.6,26.3,7.9c24.1,2.9,36-6.1,44.7-10.2c0,0,1.3,21.7,10.5,37c0,0,1.4-4.9,2.7-12C156.1,66,147.2,40.2,109.3,40.2z"
			/>
		<path class="st6" d="M109.3,40.2c-44.1,0-48.8,34.7-48.8,66.5c0,31.8,21.9,57.6,48.8,57.6c27,0,48.8-25.8,48.8-57.6
			C158.1,74.9,153.2,40.2,109.3,40.2z M109.3,161C83.8,161,63,136.6,63,106.4c0-30.1,4.4-63,46.3-63c41.6,0,46.3,32.9,46.3,63
			C155.6,136.6,134.9,161,109.3,161z"/>
		<path class="st8" d="M83.8,125c5.6,15.7,14.9,22.8,25.5,22.8s20-7.1,25.5-22.8H83.8z"/>
		<path class="st9" d="M71.7,64.6c0,0-1.4,24.6-11.2,42c0,0-8.1-29.6-3.4-49.7C59.3,47.7,69,45.8,69,45.8L71.7,64.6z"/>
		<path class="st10" d="M69,45.8c0,0-0.9,0.2-2.3,0.7l1.8,12.7c0,0-1.3,22.3-9.8,39.5c1,4.9,1.8,8,1.8,8c9.8-17.4,11.2-42,11.2-42
			L69,45.8z"/>
		<path class="st10" d="M57.1,57c-0.3,1.4-0.6,2.9-0.8,4.5c3.7,3,8.6,6.4,14.7,9.3c0.5-3.8,0.6-6.2,0.6-6.2L69,45.8
			C69,45.8,59.3,47.7,57.1,57z"/>
		<path class="st11" d="M158.1,106.7c0,0,8.1-29.6,3.4-49.7c-2.2-9.3-11.8-11.2-11.8-11.2s-8.1-16.2-30-22
			c-16-4.2-34.6,2.2-50.7,18.2c-8.9,8.9-17.9,8.9-17.9,8.9S67,72,99.5,76.2c25.6,3.3,38.3-6.9,47.5-11.6
			C147,64.6,148.4,89.3,158.1,106.7z"/>
		<path class="st12" d="M159.8,99.5c-8.4-17-10.1-29-9.7-39.1c0.1-2.5,1.3-10.5,1.8-13.8c-1.4-0.5-2.3-0.7-2.3-0.7s0,0,0-0.1
			c-0.7,3.4-2.5,11.8-2.7,19c0.1,1.6,1.8,25.1,11.2,41.9C158.1,106.7,158.9,103.9,159.8,99.5z"/>
		<g>
			<path class="st12" d="M147,64.6c0,0,0.1,1.4,0.3,3.8C147.1,66.1,147,64.6,147,64.6z"/>
			<path class="st12" d="M99.5,71.8C75.8,68.7,61,56.7,54.6,50.4c-2.2,0.5-3.6,0.5-3.6,0.5S67,72,99.5,76.2
				c25.6,3.3,38.3-6.9,47.5-11.6C137.8,69.3,125.1,75.1,99.5,71.8z"/>
		</g>
		<g>
			<path class="st11" d="M87.4,99.7c0,3.7-2.1,6.8-4.7,6.8c-2.6,0-4.7-3-4.7-6.8c0-3.7,2.1-6.8,4.7-6.8C85.3,93,87.4,96,87.4,99.7z"
				/>
			<path class="st8" d="M82.7,97.2c0,1.1-0.6,2-1.4,2c-0.8,0-1.4-0.9-1.4-2c0-1.1,0.6-2,1.4-2C82.1,95.2,82.7,96.1,82.7,97.2z"/>
		</g>
		<g>
			<ellipse class="st11" cx="134.4" cy="99.7" rx="4.7" ry="6.8"/>
			<path class="st8" d="M134.4,97.2c0,1.1-0.6,2-1.4,2c-0.8,0-1.4-0.9-1.4-2c0-1.1,0.6-2,1.4-2C133.8,95.2,134.4,96.1,134.4,97.2z"
				/>
		</g>
		<path class="st6" d="M120.6,105.5c0.1,0.6,0.1,1.2,0.1,1.8c0,7.1-5,9.1-11.3,9.1s-11.3-2-11.3-9.1c0-0.6,0-1.2,0.1-1.8
			c-0.5,1.4-0.8,2.9-0.8,4.4c0,7.1,5.3,9.1,11.9,9.1c6.6,0,11.9-2,11.9-9.1C121.4,108.3,121.1,106.9,120.6,105.5z"/>
		<path class="st13" d="M92.1,88.6c-2.1-3.7-5.5-6-9.3-6c-3.8,0-7.2,2.4-9.3,6"/>
		<path class="st13" d="M143.8,85.6c-2.1-3.7-5.5-6-9.3-6c-3.8,0-7.2,2.4-9.3,6"/>
		<g>
			<path class="st3" d="M88.6,135c0,0,0.6,0.1,1.4,0.3c0.2,0,0.4,0.1,0.7,0.1c0.2,0,0.5,0.1,0.7,0.1c0.3,0,0.5,0.1,0.8,0.1
				c0.3,0.1,0.6,0.1,0.8,0.1c0.6,0.1,1.1,0.2,1.6,0.2c0.3,0,0.5,0.1,0.8,0.1c0.2,0,0.5,0,0.7,0.1c0.9,0.1,1.4,0.2,1.4,0.2
				s-0.6,0.2-1.4,0.4c-0.2,0-0.5,0.1-0.7,0.1c-0.3,0-0.5,0-0.8,0c-0.3,0-0.6,0-0.9,0c-0.3,0-0.6-0.1-0.9-0.1
				c-0.3-0.1-0.6-0.1-0.9-0.2c-0.3-0.1-0.6-0.2-0.8-0.2c-0.5-0.2-1-0.4-1.4-0.6C89,135.5,88.6,135,88.6,135z"/>
		</g>
		<g>
			<path class="st3" d="M121.4,136.5c0,0,0.6-0.1,1.5-0.1c0.9-0.1,2-0.1,3.1-0.2c0.3,0,0.6,0,0.8-0.1c0.3,0,0.5,0,0.8-0.1
				c0.5-0.1,1-0.2,1.3-0.3c0.2-0.1,0.4-0.1,0.5-0.2c0.2-0.1,0.3-0.1,0.4-0.2c0.2-0.2,0.3-0.2,0.3-0.2s0,0.1-0.2,0.4
				c-0.1,0.1-0.1,0.3-0.3,0.4c-0.1,0.1-0.3,0.3-0.5,0.4c-0.2,0.1-0.4,0.3-0.6,0.4c-0.2,0.1-0.5,0.2-0.8,0.3
				c-0.5,0.2-1.1,0.3-1.7,0.3c-0.6,0-1.2,0-1.7,0c-0.6-0.1-1.1-0.1-1.5-0.2C121.9,136.8,121.4,136.5,121.4,136.5z"/>
		</g>
	</g>
	<polygon class="st8" points="97.3,167.6 109.6,183.1 103.2,190 90.2,172.2 	"/>
	<polygon class="st8" points="121.9,167.6 109.3,183.1 115.7,190 128.7,172.2 	"/>
	<path class="st2" d="M50.4,200.3c4.1,2.6,8.3,5,12.8,7.1c-1-7.7-2.5-14.8-4.4-21.2c-1.8,1.3-3.2,2.6-4.2,3.9
		C52.8,192.4,51.5,196,50.4,200.3z"/>
	<path class="st2" d="M154.8,207.9c4.8-2.2,9.5-4.8,13.9-7.6c-1-4.3-2.4-7.9-4.2-10.3c-1.1-1.5-2.9-3-5-4.5
		C157.4,192.3,155.8,199.8,154.8,207.9z"/>
	<path class="st2" d="M106,217.7c1.2,0,2.4,0.1,3.6,0.1c1,0,2,0,3-0.1l-1.6-29.6h-3.4L106,217.7z"/>
</g>
<g>
</g>
<g>
</g>
<g>
</g>
<g>
</g>
<g>
</g>
</svg>
