<?xml version="1.0" encoding="utf-8"?>
<!-- Generator: Adobe Illustrator 24.0.2, SVG Export Plug-In . SVG Version: 6.00 Build 0)  -->
<svg version="1.1" id="Layer_1" xmlns="http://www.w3.org/2000/svg" xmlns:xlink="http://www.w3.org/1999/xlink" x="0px" y="0px"
	 viewBox="0 0 219.4 218.8" style="enable-background:new 0 0 219.4 218.8;" xml:space="preserve">
<style type="text/css">
	.st0{fill:#91D9FA;}
	.st1{fill:#143757;}
	.st2{fill:#0D2338;}
	.st3{fill:#E3E3E3;}
	.st4{fill:#BABABA;}
	.st5{fill:#FCC5A3;}
	.st6{fill:#E6AB88;}
	.st7{fill:#FFFFFF;}
	.st8{fill:#DEA07C;}
	.st9{fill:none;stroke:#783E2C;stroke-width:2;stroke-linecap:round;stroke-linejoin:round;stroke-miterlimit:10;}
	.st10{fill:#633324;}
	.st11{fill:#4A261B;}
	.st12{fill:#783E2C;}
	.st13{fill:#663525;}
	.st14{fill:none;stroke:#783E2C;stroke-width:4;stroke-miterlimit:10;}
</style>
<g>
	
		<ellipse transform="matrix(0.7071 -0.7071 0.7071 0.7071 -45.7161 109.3457)" class="st0" cx="109.1" cy="109.9" rx="108.8" ry="108.8"/>
	<path class="st1" d="M109.1,218.6c21.8,0,42.1-6.4,59.1-17.5c-1-4.3-2.4-7.9-4.2-10.3c-8.8-11.9-55-22.4-55-22.4S63,179,54.2,190.9
		c-1.8,2.4-3.1,6-4.2,10.3C67,212.2,87.3,218.6,109.1,218.6z"/>
	<path class="st2" d="M113.7,218.5c1.1,0,2.1-0.1,3.2-0.2c0.1,0,0.3,0,0.4,0c1.2-0.1,2.4-0.2,3.6-0.3c0.3,0,0.6-0.1,0.8-0.1
		c1-0.1,2-0.2,3-0.4c0.2,0,0.4-0.1,0.6-0.1c1.2-0.2,2.3-0.4,3.5-0.6c0.2,0,0.4-0.1,0.7-0.1c1-0.2,2-0.4,3-0.6c0.2,0,0.4-0.1,0.6-0.1
		c1.2-0.3,2.3-0.5,3.5-0.8c0.1,0,0.2-0.1,0.3-0.1c1.1-0.3,2.1-0.6,3.2-0.9c0.2-0.1,0.4-0.1,0.6-0.2c2.3-0.7,4.6-1.5,6.9-2.3
		c0.2-0.1,0.3-0.1,0.5-0.2c2.3-0.9,4.5-1.8,6.7-2.8c0.1-0.1,0.2-0.1,0.3-0.2c2.2-1,4.4-2.2,6.6-3.3c0.1,0,0.1-0.1,0.2-0.1
		c1.1-0.6,2.1-1.2,3.2-1.8c0,0,0,0,0,0c1.1-0.7,2.2-1.3,3.2-2c0,0,0,0,0,0c-0.5-2-1-3.8-1.7-5.4c-16.7,10.7-36.4,16.9-57.5,16.9
		c-21.1,0-40.8-6.2-57.5-16.9c-0.6,1.6-1.2,3.4-1.7,5.4c0,0,0,0,0,0c1.1,0.7,2.1,1.4,3.2,2c0,0,0,0,0,0c1.1,0.6,2.1,1.2,3.2,1.8
		c0.1,0,0.1,0.1,0.2,0.1c2.1,1.2,4.3,2.3,6.6,3.3c0.1,0.1,0.2,0.1,0.3,0.2c2.2,1,4.4,2,6.7,2.8c0.2,0.1,0.3,0.1,0.5,0.2
		c2.2,0.9,4.5,1.6,6.9,2.3c0.2,0.1,0.4,0.1,0.6,0.2c1.1,0.3,2.1,0.6,3.2,0.9c0.1,0,0.2,0.1,0.3,0.1c1.2,0.3,2.3,0.6,3.5,0.8
		c0.2,0,0.4,0.1,0.6,0.1c1,0.2,2,0.4,3,0.6c0.2,0,0.4,0.1,0.7,0.1c1.2,0.2,2.3,0.4,3.5,0.6c0.2,0,0.4,0.1,0.6,0.1c1,0.1,2,0.3,3,0.4
		c0.3,0,0.6,0.1,0.8,0.1c1.2,0.1,2.4,0.2,3.6,0.3c0.1,0,0.3,0,0.4,0c1.1,0.1,2.1,0.1,3.2,0.2c0.3,0,0.6,0,1,0c1.2,0,2.4,0.1,3.6,0.1
		c1.2,0,2.4,0,3.6-0.1C113.1,218.6,113.4,218.6,113.7,218.5z"/>
	<path class="st2" d="M93.1,172.3L79,187.4l8.8,9.7l-8.8,7.4l7.6,11.7c2.7,0.6,5.5,1.1,8.4,1.4L93.1,172.3z"/>
	<path class="st2" d="M125.5,172.3l-1.8,45.4c2.8-0.4,5.6-0.9,8.4-1.5l7.6-11.6l-8.8-7.4l8.8-9.7L125.5,172.3z"/>
	<path class="st3" d="M93.1,172.3l0.8,45.3c5,0.7,10,1.1,15.2,1.1c5.2,0,10.3-0.4,15.3-1.1l0.8-45.3l-16-3.8L93.1,172.3z"/>
	<path class="st4" d="M113.5,218.5c1.1,0,2.1-0.1,3.2-0.2c0.1,0,0.2,0,0.3,0c2.5-0.2,5-0.4,7.5-0.8l0.1-7.3
		c-5,0.8-10.2,1.2-15.4,1.2c-5.2,0-10.3-0.4-15.3-1.2l0.1,7.3c2.4,0.3,4.9,0.6,7.4,0.8c0.1,0,0.2,0,0.3,0c1,0.1,2.1,0.1,3.1,0.2
		c0.3,0,0.5,0,0.8,0c1.2,0,2.3,0.1,3.5,0.1c1.2,0,2.4,0,3.5-0.1C112.9,218.6,113.2,218.6,113.5,218.5z"/>
	<path class="st4" d="M108.8,185.1c-3.3,0-5.9-0.1-5.9,2.7v0.4c0,2.1,0.7,6.1,3.2,6.9l-1,23.5c1.3,0,2.7,0.1,4,0.1
		c1.1,0,2.3,0,3.4-0.1l-1-23.5c2.5-0.8,3.2-4.8,3.2-6.9v-0.4C114.8,184.9,112.1,185.1,108.8,185.1z"/>
	<g>
		<path class="st4" d="M93.9,217.6c0.2,0,0.4,0,0.6,0.1l-0.8-45.3l15.4-3.8l-16,3.8L93.9,217.6z"/>
		<path class="st4" d="M109.1,168.5l15.4,3.8l-0.7,45.3c0.2,0,0.4,0,0.6-0.1l0.8-45.3L109.1,168.5z"/>
	</g>
	<polygon class="st4" points="125,179.3 125.2,172.8 124,172 120.7,171.2 109,185.6 97.6,171.2 94.1,172 93.1,172.7 93.2,179.6 
		102.7,192.7 109,185.9 115.3,192.7 	"/>
	<path class="st2" d="M114,189.2c0,2.8-2.3,5.1-5.1,5.1l0,0c-2.8,0-5.1-2.3-5.1-5.1v-0.2c0-2.8,2.3-5.1,5.1-5.1l0,0
		c2.8,0,5.1,2.3,5.1,5.1V189.2z"/>
	<polygon class="st5" points="121.9,176.6 109.1,183.9 96.4,176.6 98.2,146.3 120.1,146.3 	"/>
	<polygon class="st6" points="109,181.4 97,167.5 96.4,176.6 109.1,183.9 121.9,176.6 121.2,167.5 	"/>
	<polygon class="st7" points="96.9,168.5 109.1,183.9 102.7,190.9 89.7,173.1 	"/>
	<polygon class="st7" points="121.4,168.5 108.9,183.9 115.3,190.9 128.3,173.1 	"/>
	<path class="st2" d="M50,201.2c4.1,2.6,8.3,5,12.8,7.1c-1-7.7-2.5-14.8-4.4-21.2c-1.8,1.3-3.2,2.6-4.2,3.9
		C52.4,193.3,51,196.9,50,201.2z"/>
	<path class="st2" d="M154.4,208.8c4.8-2.2,9.5-4.8,13.9-7.6c-1-4.3-2.4-7.9-4.2-10.3c-1.1-1.5-2.9-3-5-4.5
		C157,193.2,155.4,200.7,154.4,208.8z"/>
	<path class="st2" d="M105.6,218.6c1.2,0,2.4,0.1,3.6,0.1c1,0,2,0,3-0.1l-1.6-29.6h-3.4L105.6,218.6z"/>
	<g>
		<g>
			<g>
				<path class="st5" d="M74.6,125.6c0,9.9-6.2,17.9-13.9,17.9c-7.7,0-13.9-8-13.9-17.9c0-9.9,6.2-17.9,13.9-17.9
					C68.4,107.7,74.6,115.7,74.6,125.6z"/>
				<path class="st6" d="M71.7,125.6c0,7.8-4.9,14.1-10.9,14.1c-6,0-10.9-6.3-10.9-14.1c0-7.8,4.9-14.1,10.9-14.1
					C66.8,111.5,71.7,117.8,71.7,125.6z"/>
				<path class="st8" d="M52.7,126.6c0-7.2,4.5-13.1,10.1-13.1c2.2,0,4.3,0.9,5.9,2.5c-2-2.8-4.9-4.6-8.1-4.6
					c-6,0-10.9,6.3-10.9,14.1c0,7.8,4.9,14.1,10.9,14.1c0.4,0,0.7,0,1.1-0.1C56.7,139,52.7,133.4,52.7,126.6z"/>
			</g>
			<g>
				<path class="st5" d="M143.7,125.6c0,9.9,6.2,17.9,13.9,17.9c7.6,0,13.9-8,13.9-17.9c0-9.9-6.2-17.9-13.9-17.9
					C149.9,107.7,143.7,115.7,143.7,125.6z"/>
				<path class="st6" d="M146.6,125.6c0,7.8,4.9,14.1,10.9,14.1c6,0,10.9-6.3,10.9-14.1c0-7.8-4.9-14.1-10.9-14.1
					C151.5,111.5,146.6,117.8,146.6,125.6z"/>
				<path class="st8" d="M165.5,126.6c0-7.2-4.5-13.1-10.1-13.1c-2.2,0-4.3,0.9-6,2.5c2-2.8,4.9-4.6,8.1-4.6c6,0,10.9,6.3,10.9,14.1
					c0,7.8-4.9,14.1-10.9,14.1c-0.4,0-0.7,0-1.1-0.1C161.6,139,165.5,133.4,165.5,126.6z"/>
			</g>
		</g>
		<path class="st5" d="M157.7,121.4c0,31.8-21.9,57.6-48.8,57.6c-27,0-48.8-25.8-48.8-57.6c0-31.8,4.7-66.5,48.8-66.5
			C152.8,54.9,157.7,89.6,157.7,121.4z"/>
		<path class="st6" d="M108.9,54.9c-38.6,0-47,26.5-48.5,54.5c1.2,6.4,2.5,10.9,2.5,10.9c7.4-12.3,9.7-28.7,10.3-34.7
			c6.9,3.5,15.7,6.6,26.3,7.9c24.1,2.9,36-6.1,44.7-10.2c0,0,1.3,21.7,10.5,37c0,0,1.4-4.9,2.7-12C155.6,80.8,146.8,54.9,108.9,54.9
			z"/>
		<path class="st6" d="M108.9,54.9c-44.1,0-48.8,34.7-48.8,66.5c0,31.8,21.9,57.6,48.8,57.6c27,0,48.8-25.8,48.8-57.6
			C157.7,89.6,152.8,54.9,108.9,54.9z M108.9,175.8c-25.6,0-46.3-24.4-46.3-54.6c0-30.1,4.4-63,46.3-63c41.6,0,46.3,32.9,46.3,63
			C155.1,151.3,134.4,175.8,108.9,175.8z"/>
		<path class="st9" d="M125.2,158.4c-3.5-10-9.5-14.6-16.3-14.6c-6.8,0-12.8,4.5-16.3,14.6"/>
		<path class="st10" d="M71.2,79.4c0,0-1.4,24.6-11.2,42c0,0-8.1-29.6-3.4-49.7c2.2-9.3,11.8-11.2,11.8-11.2L71.2,79.4z"/>
		<path class="st11" d="M68.5,60.5c0,0-0.9,0.2-2.3,0.7L68.1,74c0,0-1.3,22.3-9.8,39.5c1,4.9,1.8,8,1.8,8c9.8-17.4,11.2-42,11.2-42
			L68.5,60.5z"/>
		<path class="st11" d="M56.7,71.8c-0.3,1.4-0.6,2.9-0.8,4.5c3.7,3,8.6,6.4,14.7,9.3c0.5-3.8,0.6-6.2,0.6-6.2l-2.7-18.8
			C68.5,60.5,58.9,62.4,56.7,71.8z"/>
		<path class="st12" d="M157.7,121.4c0,0,8.1-29.6,3.4-49.7c-2.2-9.3-11.8-11.2-11.8-11.2s-8.1-16.2-30-22
			c-16-4.2-34.6,2.2-50.7,18.2c-8.9,8.9-17.9,8.9-17.9,8.9S66.5,86.8,99,91c25.6,3.3,38.3-6.9,47.5-11.6
			C146.5,79.4,147.9,104,157.7,121.4z"/>
		<path class="st13" d="M159.4,114.2c-8.4-17-10.1-29-9.7-39.1c0.1-2.5,1.3-10.5,1.8-13.8c-1.4-0.5-2.3-0.7-2.3-0.7s0,0,0-0.1
			c-0.7,3.4-2.5,11.8-2.7,19c0.1,1.6,1.8,25.1,11.2,41.9C157.7,121.4,158.4,118.6,159.4,114.2z"/>
		<g>
			<path class="st13" d="M146.5,79.4c0,0,0.1,1.4,0.3,3.8C146.6,80.8,146.5,79.4,146.5,79.4z"/>
			<path class="st13" d="M99,86.5c-23.7-3.1-38.5-15.1-44.8-21.4c-2.2,0.5-3.6,0.5-3.6,0.5S66.5,86.8,99,91
				c25.6,3.3,38.3-6.9,47.5-11.6C137.4,84.1,124.6,89.8,99,86.5z"/>
		</g>
		<g>
			<path class="st12" d="M87,114.5c0,3.7-2.1,6.8-4.7,6.8s-4.7-3-4.7-6.8c0-3.7,2.1-6.8,4.7-6.8S87,110.7,87,114.5z"/>
			<path class="st7" d="M82.3,112c0,1.1-0.6,2-1.4,2c-0.8,0-1.4-0.9-1.4-2c0-1.1,0.6-2,1.4-2C81.7,110,82.3,110.8,82.3,112z"/>
		</g>
		<g>
			<path class="st12" d="M138.7,114.5c0,3.7-2.1,6.8-4.7,6.8s-4.7-3-4.7-6.8c0-3.7,2.1-6.8,4.7-6.8S138.7,110.7,138.7,114.5z"/>
			<path class="st7" d="M134,112c0,1.1-0.6,2-1.4,2s-1.4-0.9-1.4-2c0-1.1,0.6-2,1.4-2S134,110.8,134,112z"/>
		</g>
		<path class="st6" d="M120.2,120.2c0.1,0.6,0.1,1.2,0.1,1.8c0,7.1-5,9.1-11.3,9.1c-6.2,0-11.3-2-11.3-9.1c0-0.6,0.1-1.2,0.1-1.8
			c-0.5,1.4-0.8,2.9-0.8,4.4c0,7.1,5.3,9.1,11.9,9.1c6.6,0,11.9-2,11.9-9.1C120.9,123.1,120.6,121.6,120.2,120.2z"/>
		<path class="st14" d="M72.9,97.3c2.1,3.7,5.5,6,9.3,6c3.8,0,7.2-2.4,9.3-6"/>
		<path class="st14" d="M124.6,97.3c2.1,3.7,5.5,6,9.3,6c3.8,0,7.2-2.4,9.3-6"/>
	</g>
</g>
<g>
</g>
<g>
</g>
<g>
</g>
<g>
</g>
<g>
</g>
</svg>
